<?xml version="1.0" standalone="no"?>
<!DOCTYPE svg PUBLIC "-//W3C//DTD SVG 20010904//EN"
 "http://www.w3.org/TR/2001/REC-SVG-20010904/DTD/svg10.dtd">
<svg version="1.0" xmlns="http://www.w3.org/2000/svg"
 width="640" height="171" viewBox="1290 861 640 171"
 preserveAspectRatio="xMidYMid meet">

<g transform="translate(0.000000,2480.000000) scale(0.100000,-0.100000)"
fill="#000000" stroke="none">
<path d="M17658 16128 c-2 -6 -1 -28 4 -47 28 -122 70 -345 75 -394 5 -58 5
-59 -17 -47 -39 21 -133 8 -179 -24 -44 -31 -55 -60 -52 -140 4 -85 53 -156
148 -213 36 -21 53 -24 108 -21 l65 3 0 -40 c0 -22 7 -51 16 -63 32 -46 94
-13 94 51 0 47 -31 180 -50 217 -10 19 -24 65 -29 101 -14 82 -14 79 4 79 22
0 18 21 -5 27 -11 3 -22 15 -24 27 -3 11 -12 53 -21 91 -9 39 -23 101 -31 138
-9 38 -20 81 -26 95 -5 15 -16 56 -24 91 -12 58 -25 80 -46 81 -3 0 -8 -5 -10
-12z m101 -570 c5 -13 12 -58 16 -100 6 -75 6 -78 -14 -78 -18 0 -20 -4 -15
-25 7 -30 -6 -32 -59 -10 -57 24 -101 74 -114 131 -10 42 -9 52 5 68 25 27 50
35 115 35 51 1 58 -2 66 -21z"/>
<path d="M16240 16098 c-36 -19 -54 -58 -46 -99 10 -57 38 -79 99 -79 48 0 54
3 75 33 12 18 22 47 22 63 0 62 -92 112 -150 82z"/>
<path d="M17954 15971 c-17 -4 -36 -11 -44 -16 -18 -11 -7 -77 21 -114 28 -39
66 -41 107 -6 17 14 35 25 41 25 25 0 10 50 -26 84 -39 37 -47 39 -99 27z"/>
<path d="M18032 15678 c-18 -18 -14 -97 12 -247 27 -151 42 -175 85 -132 21
21 22 12 -18 172 -12 48 -25 115 -29 150 -7 65 -23 84 -50 57z"/>
<path d="M18405 15681 c-89 -15 -144 -93 -145 -207 0 -47 36 -110 86 -148 56
-43 91 -51 156 -36 59 15 68 8 63 -49 -2 -20 -7 -74 -10 -119 -13 -163 -13
-167 -46 -239 -29 -67 -69 -84 -108 -45 -11 11 -18 43 -22 104 -7 96 -18 120
-47 102 -30 -19 -50 -67 -57 -135 -9 -104 18 -150 120 -199 34 -17 48 -19 64
-11 11 6 29 11 40 11 45 0 115 115 139 230 17 80 28 262 22 360 -4 67 -1 96
13 134 21 57 21 147 1 188 -10 19 -26 29 -61 38 -137 32 -138 32 -208 21z
m125 -87 l35 -6 -5 -66 c-7 -79 -19 -105 -59 -121 -67 -28 -141 16 -141 84 0
90 59 127 170 109z"/>
<path d="M16998 15675 c-2 -2 -15 -6 -30 -9 -41 -7 -90 -36 -128 -74 -25 -26
-37 -50 -46 -95 -14 -64 -13 -75 13 -155 19 -63 76 -125 145 -159 52 -26 170
-35 190 -15 7 7 21 12 33 12 28 0 90 66 104 112 7 20 11 56 10 80 -2 42 -26
108 -39 108 -4 0 -7 6 -7 13 0 6 -9 32 -21 57 -11 25 -23 57 -26 72 -5 21 -15
29 -44 37 -41 10 -148 21 -154 16z m112 -90 c0 -14 18 -59 39 -99 49 -94 59
-146 34 -180 -37 -51 -104 -68 -175 -43 -47 16 -73 40 -110 96 -76 120 10 247
170 250 39 1 42 -1 42 -24z"/>
<path d="M18961 15662 c-50 -16 -57 -22 -80 -67 -24 -50 -30 -114 -19 -205 10
-79 77 -183 140 -216 15 -8 50 -14 78 -14 102 0 161 77 168 221 4 72 1 94 -17
134 -11 26 -21 53 -21 60 0 18 -66 75 -106 91 -43 18 -76 17 -143 -4z m127
-112 c38 -32 65 -105 58 -160 -11 -92 -40 -132 -88 -123 -32 6 -37 12 -72 78
-33 64 -47 137 -35 180 8 28 15 34 42 38 62 8 72 6 95 -13z"/>
<path d="M16382 15648 c-14 -14 -15 -42 -3 -66 55 -106 117 -297 131 -403 6
-52 15 -116 19 -144 7 -57 -4 -164 -19 -179 -5 -5 -10 -17 -10 -26 0 -9 -15
-25 -33 -35 -46 -24 -127 -14 -182 23 -44 30 -55 57 -73 176 -10 63 -28 96
-43 78 -16 -18 -29 -81 -29 -141 0 -126 59 -192 203 -226 57 -13 92 -10 157
16 33 13 73 71 93 135 21 66 17 277 -7 343 -9 24 -16 54 -16 67 0 12 -11 53
-24 91 -13 37 -27 84 -31 103 -4 19 -13 46 -20 60 -14 26 -29 79 -27 92 2 9
-48 48 -62 48 -7 0 -17 -5 -24 -12z"/>
<path d="M15305 15630 c-47 -19 -85 -86 -101 -180 -12 -65 -9 -208 5 -255 6
-22 14 -60 17 -85 11 -83 37 -115 68 -84 18 18 19 15 -9 234 -20 160 -1 271
51 290 35 14 57 6 96 -36 40 -42 58 -44 58 -4 0 43 -36 109 -66 120 -30 12
-91 12 -119 0z"/>
<path d="M13309 15600 c-70 -23 -118 -46 -144 -71 -11 -10 -39 -34 -61 -54
-44 -37 -98 -130 -114 -196 -6 -22 -15 -58 -21 -81 -13 -50 -5 -216 10 -231 6
-6 11 -21 11 -34 0 -25 33 -95 78 -167 60 -94 178 -179 282 -201 143 -31 260
3 358 105 49 50 92 123 92 156 0 7 22 38 50 69 91 105 119 271 71 418 -29 87
-101 183 -156 209 -22 10 -48 25 -85 50 -67 45 -274 61 -371 28z m254 -65
c168 -44 278 -153 307 -304 5 -29 8 -56 6 -60 -2 -3 -7 -30 -10 -59 -7 -64
-42 -138 -80 -166 -27 -20 -28 -21 -41 -2 -24 33 -30 104 -11 143 9 20 20 33
23 30 3 -4 14 -2 25 4 19 10 19 11 0 42 -11 18 -22 44 -26 58 -5 25 -9 27 -73
29 -132 4 -172 -2 -213 -35 -8 -7 -26 -15 -40 -18 -33 -8 -116 -91 -143 -141
-45 -88 -22 -179 54 -218 39 -21 124 -16 173 9 42 22 124 82 128 94 2 6 15 -6
28 -27 25 -37 33 -44 79 -61 23 -9 22 -11 -43 -76 -37 -37 -91 -81 -119 -97
-46 -26 -62 -30 -132 -30 -82 0 -131 12 -178 43 -14 9 -30 17 -34 17 -24 1
-98 91 -144 176 -24 43 -51 156 -53 223 -4 91 46 239 98 292 119 123 272 172
419 134z m83 -349 c0 -1 -4 -33 -10 -72 -9 -60 -17 -78 -47 -113 -20 -22 -42
-41 -48 -41 -6 0 -11 -4 -11 -9 0 -12 -94 -51 -124 -51 -14 0 -37 10 -51 23
-24 20 -25 25 -17 64 5 23 24 60 41 82 36 45 113 100 154 108 15 3 30 9 32 14
4 6 77 2 81 -5z"/>
<path d="M14438 15483 c-27 -33 -56 -137 -67 -242 -12 -108 -21 -143 -21 -77
0 20 -7 66 -16 102 -14 56 -15 67 -3 74 11 7 9 14 -9 33 -12 13 -22 33 -22 44
0 29 -19 41 -65 39 -48 -2 -49 -8 -11 -140 14 -50 35 -146 46 -215 16 -92 26
-130 40 -141 10 -8 21 -30 25 -48 8 -40 31 -52 50 -26 17 23 23 61 30 174 12
191 17 228 37 298 12 39 27 72 34 72 15 0 74 -160 74 -203 1 -18 5 -52 11 -77
5 -25 14 -83 20 -130 11 -92 27 -122 57 -104 14 9 18 34 23 155 8 180 41 289
92 308 25 10 68 -15 93 -54 31 -47 72 -184 83 -273 16 -127 22 -138 69 -121
18 7 22 16 22 51 0 71 -48 255 -87 332 -39 78 -116 146 -163 146 -54 0 -120
-68 -141 -144 -13 -45 -23 -40 -38 20 -15 60 -47 123 -75 145 -27 23 -69 24
-88 2z"/>
<path d="M15784 15213 c-16 -12 -36 -52 -45 -91 -13 -61 39 -86 141 -66 l32 7
-4 59 c-3 35 -11 65 -20 74 -17 18 -87 29 -104 17z"/>
</g>
</svg>
