<?xml version="1.0" standalone="no"?>
<!DOCTYPE svg PUBLIC "-//W3C//DTD SVG 20010904//EN"
 "http://www.w3.org/TR/2001/REC-SVG-20010904/DTD/svg10.dtd">
<svg version="1.0" xmlns="http://www.w3.org/2000/svg"
 width="1673" height="802" viewBox="828 1015 1673 802"
 preserveAspectRatio="xMidYMid meet">

<g transform="translate(0.000000,2480.000000) scale(0.100000,-0.100000)"
fill="#000000" stroke="none">
<path d="M24938 14593 c7 -3 16 -2 19 1 4 3 -2 6 -13 5 -11 0 -14 -3 -6 -6z"/>
<path d="M24465 14510 c-4 -6 -11 -7 -17 -4 -7 4 -8 2 -4 -5 6 -9 12 -9 24 1
10 7 19 14 21 15 2 2 -1 3 -7 3 -6 0 -14 -5 -17 -10z"/>
<path d="M8960 9797 c-47 -10 -114 -29 -150 -43 -36 -13 -72 -24 -80 -24 -23
0 -142 -39 -156 -51 -15 -13 -34 -4 -34 16 0 10 -13 13 -45 11 -24 -1 -46 -4
-48 -7 -1 -2 -8 -12 -15 -21 -7 -9 -16 -38 -19 -65 -2 -26 -8 -54 -13 -62 -4
-8 -4 -26 -1 -40 4 -14 6 -64 4 -111 -2 -47 -3 -89 -3 -95 0 -5 2 -122 4 -260
6 -341 13 -496 26 -530 8 -21 8 -30 -1 -36 -7 -4 -10 -22 -7 -43 2 -19 1 -37
-2 -38 -3 -2 -17 -21 -32 -42 -20 -30 -25 -43 -16 -53 7 -8 7 -13 0 -13 -5 0
-8 -9 -5 -20 4 -14 0 -20 -11 -20 -10 0 -16 -9 -16 -25 0 -19 4 -23 18 -18 16
6 15 5 -1 -15 -18 -20 -18 -21 0 -46 10 -14 26 -28 35 -31 15 -5 18 -27 8 -55
-1 -3 -4 -84 -6 -180 -2 -96 -4 -186 -5 -200 -1 -14 -1 -43 0 -65 2 -43 -7
-460 -11 -535 -2 -25 -6 -49 -9 -55 -3 -5 -5 -52 -4 -104 2 -91 3 -95 31 -118
16 -12 36 -23 45 -23 23 0 89 -29 89 -38 0 -5 9 -18 20 -30 25 -26 68 -29 111
-7 16 9 33 13 38 11 5 -3 20 3 33 14 18 14 28 35 35 77 13 71 15 121 7 134 -3
6 -8 59 -10 117 -12 331 -12 357 -2 369 7 9 7 13 -2 13 -8 0 -11 9 -7 26 2 15
1 56 -3 93 -5 36 -5 70 0 76 11 13 11 13 1 58 -6 26 -6 37 3 37 8 0 8 2 0 8
-6 4 -12 21 -12 37 -1 35 -9 108 -12 115 -5 13 -2 108 5 129 5 16 4 21 -3 17
-7 -4 -10 5 -7 26 2 18 -1 38 -7 46 -9 10 -8 16 2 22 8 5 18 6 22 4 5 -3 39 6
76 20 75 30 173 49 245 48 26 0 47 2 47 6 0 12 113 52 146 52 11 0 24 4 30 9
5 5 25 11 45 14 20 2 43 8 50 13 8 5 25 10 39 12 14 2 35 10 48 18 13 9 35 14
50 13 36 -3 72 9 100 34 13 12 33 22 45 23 45 4 66 17 91 55 15 21 33 39 41
39 8 0 15 4 15 10 0 17 50 60 70 60 11 0 20 7 20 15 0 8 4 15 9 15 5 0 15 16
22 35 7 19 16 35 21 35 4 0 5 6 2 14 -3 7 2 20 10 28 11 11 12 18 4 26 -8 8
-7 17 4 34 16 26 42 118 34 125 -3 3 -1 16 4 29 7 17 5 27 -5 38 -17 17 -20
57 -5 72 6 6 4 26 -5 57 -13 42 -12 47 2 47 11 0 13 3 5 13 -6 7 -13 34 -16
60 -3 27 -13 58 -21 70 -8 12 -15 29 -15 37 0 9 -11 27 -24 39 -14 13 -22 29
-19 37 3 8 0 14 -6 14 -6 0 -11 6 -11 13 0 6 -12 21 -26 32 -14 11 -34 28 -45
38 -10 9 -19 14 -19 10 -1 -5 -8 4 -16 20 -8 15 -19 27 -25 27 -6 0 -8 4 -5 8
5 9 -10 37 -21 38 -20 2 -60 23 -72 38 -7 9 -19 16 -26 16 -8 0 -32 18 -55 40
-23 22 -50 40 -61 40 -10 0 -19 5 -19 10 0 6 -4 10 -9 10 -5 0 -20 4 -33 9
-13 5 -25 9 -28 9 -3 0 -22 7 -43 16 -21 8 -55 16 -75 17 -20 1 -41 5 -47 8
-37 21 -209 20 -305 -2z m270 -299 c30 -19 68 -38 83 -42 15 -4 47 -27 71 -51
23 -25 46 -45 50 -45 10 0 56 -51 56 -61 0 -5 7 -9 15 -9 8 0 15 -6 15 -14 0
-7 11 -22 25 -32 14 -10 25 -24 25 -30 0 -6 12 -33 26 -59 14 -27 27 -60 29
-74 2 -14 8 -41 14 -58 5 -18 8 -33 5 -33 -3 0 0 -9 6 -20 7 -12 7 -20 1 -20
-5 0 -10 -8 -11 -17 -2 -58 -7 -101 -14 -123 -9 -26 -30 -50 -43 -50 -5 0 -17
-13 -26 -30 -16 -26 -31 -33 -63 -29 -3 0 -20 -13 -39 -30 -21 -18 -41 -28
-53 -24 -10 2 -37 -3 -58 -12 -56 -24 -126 -45 -135 -40 -3 3 -23 -6 -42 -19
-32 -22 -117 -44 -141 -37 -5 1 -23 -4 -40 -10 -16 -7 -50 -14 -75 -15 -26 0
-46 -2 -46 -3 0 -4 -38 -11 -79 -15 -21 -3 -43 -9 -49 -15 -25 -25 -54 -10
-47 24 5 28 -7 167 -20 213 -5 20 -5 32 1 32 6 0 6 7 1 18 -4 9 -5 55 -2 102
3 47 2 112 -3 144 -5 39 -3 63 4 72 8 10 8 14 1 14 -7 0 -9 13 -5 33 9 52 13
145 13 258 l-1 107 68 12 c37 7 76 16 87 20 10 3 91 6 180 5 l162 -1 54 -36z"/>
<path d="M20595 9709 c-28 -34 -37 -102 -20 -143 5 -12 5 -21 -1 -23 -11 -4
-6 -93 7 -108 4 -6 4 -16 0 -24 -5 -7 -4 -33 0 -58 11 -59 14 -137 5 -151 -4
-7 -2 -12 5 -12 7 0 9 -10 6 -30 -4 -16 -3 -30 1 -30 5 0 8 -26 8 -57 0 -32 2
-102 5 -156 3 -53 3 -100 0 -103 -9 -8 -7 -104 1 -104 5 0 8 -15 8 -32 0 -18
1 -85 4 -148 2 -63 4 -126 5 -140 0 -14 -4 -27 -9 -28 -6 -2 -8 -8 -5 -13 13
-20 15 -90 4 -110 -9 -18 -9 -21 2 -17 10 4 15 -4 16 -23 1 -16 -2 -29 -8 -29
-6 0 -7 -5 -4 -10 3 -6 7 -28 7 -50 0 -22 3 -40 7 -40 16 0 26 -59 20 -115 -7
-61 -6 -112 4 -152 3 -13 2 -25 -2 -27 -7 -5 12 -197 23 -234 5 -13 3 -22 -3
-22 -15 0 -14 -27 2 -33 9 -4 9 -8 -1 -15 -42 -29 90 -102 192 -107 34 -2 72
-6 86 -10 14 -4 83 -7 154 -6 73 0 135 -4 142 -9 8 -7 21 -7 40 0 16 6 43 9
61 5 17 -3 34 -1 38 5 3 5 25 10 48 10 23 0 58 5 77 11 19 6 64 14 100 19 35
5 66 13 68 19 2 5 32 24 68 41 35 18 64 35 64 38 0 4 15 24 34 46 41 45 92
146 101 199 3 20 10 37 14 37 9 0 25 106 24 153 -1 15 2 27 6 27 3 0 6 15 6
34 0 19 -3 32 -6 30 -4 -2 -7 29 -7 69 0 39 -3 104 -6 142 -8 95 -8 96 0 129
6 25 5 28 -11 22 -15 -6 -16 -4 -4 10 16 20 13 83 -6 104 -8 9 -18 32 -21 51
-10 58 -31 92 -81 134 -26 22 -65 57 -88 79 -46 44 -72 56 -120 56 -19 0 -36
4 -39 9 -3 5 -22 12 -41 15 -45 9 -44 26 1 62 26 21 34 35 31 51 -2 12 -1 20
3 18 14 -9 69 130 75 190 7 70 7 67 1 123 -4 28 -2 42 6 42 9 0 9 3 0 12 -7 7
-12 22 -12 35 0 13 -4 23 -9 23 -5 0 -12 19 -17 43 -4 23 -9 47 -10 52 -1 6
-2 16 -3 23 -2 22 -57 72 -80 72 -14 0 -28 11 -39 30 -9 16 -21 30 -25 30 -5
0 -6 3 -4 8 3 4 -16 7 -41 7 -29 0 -63 9 -88 22 -34 18 -61 22 -145 23 -57 1
-124 -2 -149 -8 -25 -6 -85 -16 -135 -22 -49 -7 -100 -19 -113 -27 -25 -15
-58 -10 -47 8 4 5 -11 27 -32 47 -31 30 -48 38 -81 39 -35 2 -45 -3 -67 -28z
m549 -254 c16 -3 40 -12 55 -19 14 -8 42 -17 61 -21 41 -9 83 -39 86 -62 2 -9
12 -29 24 -45 11 -15 17 -28 12 -28 -10 0 -7 -54 3 -71 4 -5 3 -9 -2 -9 -7 0
-25 -26 -58 -86 -7 -11 -15 -32 -18 -45 -4 -14 -18 -31 -32 -39 -14 -7 -25
-21 -25 -31 0 -10 -9 -23 -20 -29 -11 -6 -19 -19 -18 -28 2 -9 -3 -16 -9 -14
-7 1 -13 -1 -13 -6 0 -14 -59 -72 -74 -72 -8 0 -45 -16 -82 -35 -38 -20 -83
-38 -100 -41 -26 -4 -33 -1 -39 18 -4 13 -6 28 -5 33 6 27 2 114 -6 126 -14
23 -15 52 -2 61 10 6 10 8 1 8 -7 0 -13 5 -13 11 0 5 6 7 13 4 6 -4 5 0 -4 7
-10 8 -16 27 -16 48 1 19 -3 50 -7 69 -7 27 -5 32 5 26 11 -6 12 -5 2 6 -8 7
-13 38 -13 71 0 32 -4 58 -10 58 -6 0 -6 9 -2 23 9 23 5 57 -6 57 -15 0 -7 50
8 51 74 2 186 12 190 16 5 5 53 0 114 -12z m331 -941 c17 -4 38 -7 48 -5 9 1
17 -2 17 -7 0 -5 15 -16 33 -23 40 -17 68 -48 63 -71 -3 -11 2 -18 11 -18 11
0 14 -9 11 -35 -2 -19 0 -35 5 -35 5 0 6 -11 3 -25 -4 -14 -2 -35 5 -46 6 -11
12 -38 14 -59 4 -34 2 -38 -13 -33 -16 6 -16 6 1 -11 11 -12 15 -26 11 -42 -4
-16 -2 -24 6 -24 8 0 10 -8 5 -22 -3 -13 -8 -57 -9 -98 -4 -118 -19 -163 -72
-216 -56 -54 -90 -78 -103 -70 -5 3 -11 1 -13 -6 -2 -6 -22 -13 -44 -14 -21
-2 -67 -5 -100 -7 -34 -3 -78 -10 -98 -17 -19 -6 -41 -8 -47 -5 -6 4 -57 9
-112 10 -56 2 -114 4 -129 4 -25 1 -28 5 -28 37 0 19 5 45 11 56 9 16 8 19 -2
13 -9 -6 -11 1 -7 32 3 22 1 47 -4 56 -5 11 -5 24 2 37 6 11 7 20 2 20 -11 0
-13 38 -2 45 4 3 6 15 2 27 -4 16 -2 19 9 13 11 -7 12 -6 3 6 -6 8 -12 37 -13
64 -1 28 -4 69 -6 93 -3 26 0 42 7 42 7 0 7 4 0 13 -6 7 -10 60 -10 120 0 59
-3 120 -7 136 -4 18 -2 32 6 37 6 4 60 8 118 10 152 4 271 12 306 22 33 10 73
8 120 -4z"/>
<path d="M23785 9598 c-14 -13 -27 -33 -28 -45 0 -12 -4 -20 -8 -17 -13 8 -20
-29 -7 -38 8 -6 9 -11 3 -14 -5 -2 -9 -32 -8 -66 4 -142 3 -217 -2 -287 -3
-41 -1 -79 4 -85 5 -6 9 -28 9 -48 0 -20 3 -42 7 -48 4 -7 7 -37 6 -67 0 -30
2 -60 6 -66 4 -7 8 -17 9 -24 1 -6 5 -30 8 -52 3 -23 17 -66 31 -96 47 -98 21
-149 -54 -111 -41 22 -281 60 -281 45 0 -4 -12 -6 -27 -6 -16 1 -52 -2 -81 -7
-49 -7 -56 -12 -91 -59 -53 -74 -68 -108 -60 -139 4 -14 3 -31 -1 -38 -5 -7
-6 -19 -3 -27 3 -7 0 -13 -7 -13 -9 0 -10 -11 -5 -42 5 -24 8 -70 7 -103 0
-36 4 -63 11 -67 9 -6 9 -8 0 -8 -17 0 -16 -19 2 -54 12 -22 12 -32 4 -43 -9
-11 -9 -12 5 -7 9 3 16 2 17 -2 1 -5 2 -27 4 -49 3 -43 41 -173 57 -192 5 -7
7 -17 3 -23 -3 -5 -1 -10 5 -10 6 0 19 -19 29 -42 11 -26 31 -50 50 -61 17
-10 31 -23 31 -28 0 -6 4 -8 8 -5 5 3 28 -15 52 -39 24 -24 47 -42 51 -39 4 2
10 0 13 -5 4 -5 21 -7 40 -4 18 3 36 1 39 -5 8 -13 53 -3 68 14 6 8 18 14 26
14 7 0 29 15 47 34 40 40 81 53 93 31 11 -19 83 -56 95 -49 5 3 12 -3 15 -15
6 -25 23 -28 23 -3 1 15 2 15 15 -2 8 -11 15 -15 15 -8 0 12 46 28 69 23 8 -1
12 3 9 11 -6 14 16 41 25 31 3 -2 13 10 23 29 14 27 17 56 15 168 -4 210 -4
210 -17 210 -19 0 -27 33 -10 42 13 7 13 11 -4 28 -20 20 -21 25 -25 220 -2
70 -14 148 -24 154 -4 3 -8 32 -8 64 0 33 -3 64 -6 68 -2 5 -5 33 -6 62 0 29
-4 59 -8 65 -4 6 -8 81 -10 167 -7 439 -13 581 -25 603 -7 12 -11 25 -10 29 1
4 -11 14 -26 22 -16 8 -39 30 -52 48 -27 39 -96 98 -116 98 -7 0 -25 -10 -39
-22z m-130 -1313 c22 -3 49 -9 60 -14 11 -6 45 -12 76 -16 l56 -6 -2 -102 c-2
-67 2 -105 9 -109 7 -5 5 -8 -6 -8 -19 0 -14 -28 6 -42 7 -5 6 -8 -3 -8 -10 0
-11 -3 -3 -13 21 -25 0 -37 -47 -26 -25 5 -51 7 -60 3 -9 -4 -19 -8 -23 -8
-16 -2 -21 -18 -8 -26 11 -7 8 -11 -15 -20 -16 -6 -32 -16 -36 -22 -8 -12 -49
11 -49 29 0 7 -7 16 -16 21 -9 5 -18 22 -19 37 -2 15 -8 31 -14 34 -5 4 -10
15 -10 26 -1 44 -4 61 -13 72 -6 7 -8 20 -4 28 3 8 2 15 -3 15 -14 0 -21 44
-8 53 9 7 9 10 0 14 -16 6 -17 35 -1 51 8 8 8 15 0 25 -18 21 -1 29 48 23 25
-3 63 -8 85 -11z"/>
<path d="M17080 9502 c0 -5 -14 -9 -32 -8 -31 1 -78 -29 -78 -51 0 -5 -18 -24
-39 -41 -22 -18 -42 -41 -46 -51 -3 -11 -28 -43 -55 -72 -28 -30 -50 -60 -50
-69 0 -8 -11 -33 -23 -56 -13 -22 -23 -50 -22 -62 1 -11 -2 -19 -6 -17 -4 3
-14 -6 -23 -20 -11 -17 -13 -25 -5 -25 8 0 7 -6 -3 -17 -8 -10 -18 -26 -21
-36 -4 -10 -11 -15 -17 -12 -6 3 -7 -1 -4 -10 4 -8 1 -22 -5 -29 -14 -16 -47
-14 -43 3 1 6 -5 11 -13 11 -8 0 -15 4 -15 9 0 5 -14 11 -30 15 -19 3 -51 26
-83 60 -28 30 -71 62 -94 71 -28 11 -49 29 -63 52 -11 19 -29 37 -40 40 -11 3
-20 9 -20 14 0 5 -6 9 -14 9 -8 0 -36 20 -62 45 -26 25 -59 48 -73 52 -14 3
-53 29 -86 57 -34 30 -79 58 -105 66 -25 7 -52 19 -60 25 -8 7 -36 17 -62 24
-52 12 -91 2 -104 -28 -11 -26 -21 -111 -13 -111 4 0 8 -8 8 -17 2 -57 13
-153 22 -186 6 -21 12 -71 15 -110 3 -40 11 -117 19 -172 7 -55 13 -107 13
-115 0 -8 3 -31 6 -50 3 -19 8 -84 11 -145 3 -60 8 -168 11 -240 10 -219 10
-405 -1 -405 -7 0 -7 -3 0 -8 6 -4 11 -43 12 -87 0 -44 4 -109 7 -145 3 -36 8
-96 11 -135 6 -77 9 -106 21 -210 4 -38 7 -80 7 -92 -1 -13 2 -23 6 -23 4 0
13 -12 19 -26 7 -14 16 -23 21 -20 5 3 11 -3 14 -13 11 -44 203 -34 225 12 28
59 29 117 1 285 -17 108 -18 128 -5 152 8 17 10 33 5 41 -5 8 -9 28 -9 45 0
17 -11 64 -23 103 -13 40 -21 74 -17 76 8 5 -9 101 -33 190 -7 28 -13 67 -13
87 1 21 -2 38 -5 38 -7 0 -8 26 -7 245 1 99 2 264 2 367 1 104 2 188 4 188 11
0 44 -24 80 -57 22 -21 48 -45 57 -53 9 -8 29 -32 44 -52 16 -21 30 -35 33
-33 2 3 31 -20 63 -50 32 -30 63 -55 69 -55 14 0 36 -25 55 -62 8 -15 23 -30
33 -34 10 -3 26 -18 35 -32 10 -15 30 -39 45 -53 15 -14 28 -31 28 -37 0 -14
31 -52 43 -52 4 0 18 -7 31 -16 14 -8 52 -17 88 -18 34 -2 68 -5 73 -6 27 -6
55 16 78 63 14 29 27 61 29 72 2 10 14 22 28 26 14 4 20 7 13 8 -8 1 -12 19
-11 55 1 44 4 53 17 49 13 -5 14 -3 4 8 -7 7 -13 21 -13 31 0 31 32 112 53
136 11 12 17 22 13 22 -5 0 -1 11 8 25 9 13 16 33 16 45 0 21 8 24 34 14 13
-5 14 -9 5 -20 -8 -10 -8 -14 0 -14 15 0 14 -40 -1 -40 -7 0 -5 -5 5 -11 11
-6 16 -17 12 -28 -3 -10 3 -29 14 -43 16 -20 18 -32 11 -61 -4 -21 -4 -37 1
-37 5 0 9 -8 9 -17 0 -9 7 -25 17 -35 9 -10 11 -18 5 -18 -7 0 -8 -10 -1 -32
21 -69 22 -75 34 -178 11 -93 11 -140 0 -143 -6 -2 -5 -10 4 -21 9 -11 15 -42
16 -80 1 -34 5 -68 10 -76 4 -7 8 -29 7 -48 -1 -19 3 -43 9 -54 6 -11 7 -18 2
-15 -5 4 -10 0 -10 -8 0 -9 6 -14 13 -13 7 2 13 -1 14 -7 1 -5 6 -18 11 -27 5
-10 5 -19 0 -22 -5 -4 -12 0 -15 6 -3 7 -3 0 0 -17 4 -16 7 -43 8 -60 1 -16 6
-36 13 -42 7 -8 10 -38 6 -87 -4 -74 4 -140 34 -274 13 -60 21 -75 40 -83 13
-5 23 -13 23 -19 0 -6 11 -15 25 -20 15 -6 27 -20 31 -37 13 -55 52 -72 76
-33 10 15 24 20 56 20 50 0 53 6 81 136 13 59 15 100 10 155 -4 45 -3 79 3 86
6 7 11 40 12 73 0 33 4 60 9 60 4 0 7 -4 7 -10 0 -5 5 -10 12 -10 6 0 4 7 -5
18 -20 22 -22 58 -4 65 8 3 7 9 -6 18 -10 8 -21 36 -26 67 -4 29 -15 60 -23
70 -23 26 -29 62 -12 69 8 3 12 9 9 13 -3 5 -8 41 -10 81 -3 40 -9 75 -14 78
-9 6 -21 87 -24 168 -1 22 -5 39 -9 36 -13 -7 -9 12 4 25 9 9 9 12 0 12 -7 0
-12 16 -12 43 0 27 -3 37 -9 29 -6 -11 -10 -10 -15 4 -5 12 -1 23 10 31 18 13
12 43 -9 43 -12 0 -30 66 -42 160 -2 19 -7 41 -11 50 -3 8 -7 43 -9 78 -3 43
-11 72 -25 91 -23 33 -26 51 -8 51 9 0 9 3 0 12 -7 7 -12 22 -12 35 0 15 -6
23 -17 24 -15 0 -15 2 -3 7 17 8 22 52 6 52 -6 0 -4 5 4 10 10 6 11 10 3 10
-7 0 -13 11 -13 24 0 13 -7 29 -15 36 -8 6 -14 19 -13 28 3 38 -3 62 -14 62
-7 0 -26 28 -42 62 -32 69 -68 108 -101 108 -13 0 -26 7 -29 16 -5 13 -9 14
-20 5 -11 -9 -15 -9 -19 1 -4 10 -8 10 -17 -2 -9 -11 -13 -12 -17 -2 -5 13
-33 17 -33 4z m-1080 -512 c0 -5 -4 -10 -10 -10 -5 0 -10 5 -10 10 0 6 5 10
10 10 6 0 10 -4 10 -10z m1070 -51 c0 -6 -4 -7 -10 -4 -5 3 -10 11 -10 16 0 6
5 7 10 4 6 -3 10 -11 10 -16z m577 -1161 c-3 -8 -6 -5 -6 6 -1 11 2 17 5 13 3
-3 4 -12 1 -19z"/>
<path d="M11255 8863 c-30 -8 -35 -21 -35 -96 0 -76 -16 -95 -50 -60 -10 11
-35 30 -54 43 -30 18 -39 20 -51 10 -27 -23 -18 -63 25 -105 44 -43 51 -60 21
-50 -28 9 -74 -5 -62 -19 5 -6 9 -24 9 -40 -1 -33 15 -46 59 -46 l33 0 -17
-42 c-9 -24 -22 -50 -30 -59 -7 -8 -13 -25 -13 -37 0 -39 45 -28 100 24 l50
47 0 -41 c0 -61 46 -96 70 -53 5 11 10 35 10 53 l1 33 38 -42 c39 -43 67 -53
89 -31 19 19 14 54 -11 85 -56 70 -59 64 29 57 68 -6 83 -4 97 10 38 39 11 81
-71 109 -35 12 -43 12 -55 0 -8 -8 -24 -13 -36 -11 -21 3 -20 6 18 57 43 58
52 97 24 108 -12 5 -30 -8 -64 -45 -26 -29 -50 -52 -53 -52 -3 0 -6 29 -6 65
0 63 -20 136 -37 134 -4 -1 -17 -4 -28 -6z"/>
<path d="M18685 8685 c-5 -2 -22 -6 -36 -9 -33 -7 -59 -46 -65 -94 -18 -151
-19 -185 -4 -190 6 -2 10 -11 10 -20 0 -9 7 -35 14 -57 8 -22 11 -44 8 -50 -8
-13 -3 -47 10 -62 6 -8 6 -18 -1 -31 -6 -11 -7 -22 -4 -26 17 -16 -149 -158
-178 -152 -38 8 -69 19 -69 25 0 4 -11 14 -25 21 -49 26 -76 84 -85 182 -5 49
-13 95 -19 102 -6 7 -11 24 -10 37 1 34 -31 159 -41 159 -10 0 -44 81 -41 98
1 6 -5 12 -14 12 -8 0 -15 9 -15 20 0 14 -5 18 -17 13 -10 -4 -14 -2 -9 5 9
14 -106 3 -116 -12 -4 -6 -10 -7 -14 -3 -4 4 -13 -2 -20 -12 -18 -26 -6 -219
16 -246 15 -18 27 -80 20 -100 -4 -12 -1 -25 7 -33 8 -8 11 -27 9 -48 -6 -48
12 -167 27 -176 9 -5 9 -8 0 -8 -11 0 -10 -7 15 -80 3 -8 4 -18 4 -22 -1 -5 3
-8 8 -8 6 0 25 -16 43 -35 17 -19 36 -35 41 -35 5 0 17 -6 25 -13 14 -12 93
-39 155 -52 10 -2 25 -10 32 -16 9 -7 53 -13 110 -14 81 -1 100 1 120 18 14
11 41 23 60 27 l34 8 1 -57 c1 -31 2 -65 3 -76 1 -11 -3 -26 -8 -32 -5 -8 -4
-13 3 -13 17 0 13 -31 -6 -52 -15 -17 -15 -18 0 -18 22 0 22 -29 1 -37 -11 -4
-14 -14 -10 -34 3 -17 0 -32 -8 -38 -8 -6 -16 -29 -20 -49 -3 -21 -17 -51 -30
-67 -14 -16 -23 -32 -20 -37 3 -4 0 -8 -7 -8 -6 0 -26 -15 -43 -33 -17 -19
-37 -32 -43 -30 -6 2 -14 0 -17 -6 -8 -12 -46 -2 -46 12 0 6 -3 7 -7 4 -3 -4
-11 -1 -17 7 -6 7 -36 18 -66 24 -81 15 -161 -4 -200 -48 -8 -9 -25 -22 -37
-29 -13 -6 -23 -18 -23 -25 0 -8 -6 -16 -14 -19 -10 -4 -14 -21 -14 -53 0 -25
-5 -51 -11 -57 -6 -6 -11 -15 -11 -21 0 -6 5 -5 12 2 7 7 16 12 20 12 14 0 27
-44 16 -57 -6 -7 -5 -14 2 -18 6 -3 8 -11 5 -16 -4 -5 2 -22 12 -37 10 -15 23
-36 29 -47 6 -11 15 -20 20 -21 5 0 31 -10 57 -22 38 -17 53 -20 69 -11 19 10
77 8 147 -7 21 -4 36 -2 40 5 7 11 89 32 125 32 26 0 100 36 128 62 13 12 41
44 62 70 22 26 50 50 63 53 13 4 23 12 23 20 0 8 5 14 10 14 6 0 10 13 10 29
0 20 9 36 26 50 15 12 23 21 19 21 -5 0 -1 8 9 19 9 10 21 31 26 47 5 16 16
47 24 69 8 22 15 57 16 78 0 20 5 37 10 37 6 0 10 7 10 15 0 8 -4 15 -9 15 -5
0 -12 7 -15 16 -4 12 -2 15 9 10 11 -4 15 2 16 22 1 15 0 32 -1 37 -10 32 0
118 15 141 16 25 16 26 -3 20 -15 -5 -21 -1 -26 20 -4 15 -3 30 2 33 10 7 9
43 -3 121 -4 30 -9 69 -10 85 -1 17 -8 49 -14 73 -7 24 -12 66 -13 93 0 27 -3
51 -8 54 -4 3 -11 31 -15 62 -4 32 -9 67 -11 78 -12 85 -22 162 -22 175 0 48
-32 121 -68 160 -33 34 -48 42 -80 44 -22 1 -44 5 -49 8 -6 3 -14 4 -20 3z"/>
<path d="M22515 8599 c-16 -5 -43 -8 -60 -7 -18 0 -60 -15 -103 -38 -73 -38
-104 -74 -122 -139 -3 -11 -11 -20 -18 -20 -6 0 -29 -30 -51 -67 -21 -37 -33
-64 -25 -61 14 5 14 0 -2 -44 -19 -53 -20 -146 -1 -193 20 -51 36 -113 32
-121 -3 -5 -1 -18 5 -29 6 -11 13 -36 16 -56 2 -20 11 -42 19 -50 8 -9 15 -26
15 -39 0 -15 16 -40 40 -64 22 -22 40 -46 40 -55 0 -8 5 -18 11 -21 6 -4 8
-14 5 -22 -3 -8 -2 -12 3 -9 10 6 42 -28 60 -65 7 -15 24 -33 38 -40 13 -7 29
-21 34 -31 5 -10 14 -18 20 -18 5 0 23 -15 39 -33 16 -19 35 -34 42 -35 7 -1
44 -4 81 -6 38 -2 71 -7 74 -10 3 -2 16 0 30 5 14 5 49 8 78 7 45 -2 58 2 91
27 22 16 41 33 42 37 2 4 9 8 15 8 7 0 26 14 42 30 17 17 40 40 53 52 12 12
22 26 22 31 0 5 9 22 21 38 18 25 21 45 21 117 0 112 -1 118 -27 142 -18 17
-37 21 -108 23 -77 2 -88 0 -101 -18 -8 -11 -26 -33 -41 -50 -41 -47 -65 -82
-59 -88 6 -6 -75 -22 -95 -18 -7 1 -25 13 -40 27 -14 13 -29 24 -34 24 -4 0
-6 4 -3 9 3 5 -1 14 -9 21 -8 7 -15 19 -15 26 0 8 -14 26 -31 41 -30 27 -97
148 -87 158 5 5 61 13 153 21 118 12 153 19 204 46 67 35 83 47 75 59 -3 5 -1
9 4 9 18 0 44 81 46 140 1 19 5 41 9 48 13 19 -25 122 -46 122 -13 0 -36 31
-37 50 -1 16 -34 60 -45 60 -3 0 -21 12 -40 26 -23 17 -54 28 -97 34 -111 15
-152 17 -183 9z m110 -269 c14 0 30 -7 37 -15 7 -9 20 -23 28 -32 18 -20 22
-43 6 -43 -6 0 -23 -8 -36 -17 -14 -10 -33 -16 -43 -15 -10 2 -24 -1 -31 -7
-8 -6 -33 -13 -57 -15 -24 -2 -59 -7 -76 -11 -52 -12 -43 23 20 81 75 68 99
85 115 79 8 -3 24 -5 37 -5z"/>
<path d="M13395 8567 c-18 -20 -20 -35 -19 -177 1 -85 4 -186 6 -225 2 -38 1
-80 -3 -91 -4 -13 -3 -26 4 -33 8 -8 8 -14 0 -22 -6 -6 -9 -18 -6 -25 3 -8 -2
-17 -11 -20 -21 -8 -22 -89 -1 -101 8 -5 18 -31 21 -57 4 -29 3 -47 -2 -44 -5
4 -8 -19 -7 -50 1 -32 3 -57 4 -57 1 0 4 -31 6 -70 2 -38 6 -99 8 -135 4 -75
11 -128 19 -150 3 -8 7 -37 10 -64 2 -29 13 -61 27 -79 12 -16 17 -27 10 -23
-15 10 -14 -24 2 -45 7 -9 19 -18 27 -22 9 -3 10 -6 3 -6 -24 -2 -13 -27 31
-75 32 -35 54 -50 86 -57 23 -5 48 -15 55 -22 7 -7 31 -12 54 -10 30 1 40 -1
35 -10 -5 -8 -3 -8 7 1 7 6 29 12 49 12 20 0 40 4 45 8 14 12 120 53 131 51
29 -5 46 5 61 36 12 26 23 35 41 35 22 0 52 25 95 78 18 23 23 52 9 52 -5 0
-9 6 -9 14 0 8 6 12 14 9 8 -3 13 2 13 15 0 11 -6 22 -12 25 -10 4 -10 7 0 18
6 7 12 22 12 34 -1 18 -2 18 -13 4 -9 -12 -15 -13 -23 -5 -13 14 4 35 24 28
18 -6 2 29 -23 50 -11 10 -23 17 -28 18 -4 0 -26 9 -50 20 -61 28 -187 15
-187 -20 0 -20 -57 -66 -98 -78 -48 -14 -62 -10 -62 19 0 11 -8 34 -17 52 -9
18 -16 36 -15 40 1 4 -3 18 -10 30 -6 12 -13 33 -15 47 -9 73 -29 160 -36 154
-4 -4 -7 0 -7 8 0 9 5 18 11 20 7 2 5 13 -5 32 -8 16 -12 35 -9 44 4 8 7 35 7
61 l1 46 83 2 c46 2 101 7 122 13 41 11 69 43 49 56 -8 4 -7 9 2 15 11 7 11
11 2 17 -12 8 -13 29 -1 47 9 15 -1 27 -43 49 -37 20 -54 19 -194 -3 -33 -6
-60 -9 -61 -8 -2 3 -13 93 -20 172 -4 39 -12 81 -19 95 -7 14 -10 31 -8 38 3
7 0 27 -7 45 -6 17 -14 46 -16 62 -9 60 -14 74 -40 104 -31 38 -78 41 -109 8z"/>
<path d="M17155 8290 c3 -5 11 -10 16 -10 6 0 7 5 4 10 -3 6 -11 10 -16 10 -6
0 -7 -4 -4 -10z"/>
<path d="M10260 8160 c-25 -5 -65 -9 -89 -9 -44 -1 -141 -37 -141 -53 0 -4 -8
-8 -17 -8 -36 0 -191 -150 -177 -171 2 -4 0 -10 -6 -14 -5 -3 -10 -16 -10 -29
0 -12 -9 -32 -21 -44 -14 -15 -18 -29 -14 -43 4 -12 3 -19 -2 -16 -5 3 -14 -7
-20 -24 -7 -17 -7 -31 -2 -35 5 -3 9 -10 9 -15 0 -6 -5 -7 -11 -3 -7 4 -10 -4
-9 -22 4 -58 0 -83 -12 -80 -7 1 -10 1 -7 -1 3 -2 4 -38 2 -81 -4 -69 -4 -94
-2 -154 0 -10 4 -20 10 -23 5 -4 9 -29 9 -56 0 -31 4 -48 10 -44 6 3 10 2 10
-4 0 -5 -5 -11 -11 -13 -14 -5 6 -71 33 -107 11 -14 16 -32 12 -44 -7 -23 28
-97 68 -145 15 -18 28 -39 28 -46 0 -26 49 -58 111 -72 34 -8 68 -19 74 -24 7
-6 31 -4 66 5 29 8 73 15 96 15 36 0 46 5 71 36 18 21 35 33 42 29 14 -9 47
21 66 60 22 45 41 77 51 84 5 3 19 23 32 44 12 20 29 37 37 37 9 0 12 5 9 10
-3 6 -1 10 4 10 6 0 11 12 11 28 0 52 34 68 52 25 7 -16 17 -31 21 -34 5 -4 4
-10 -3 -14 -9 -6 -9 -9 0 -15 6 -4 13 -20 15 -36 1 -16 10 -49 19 -74 9 -25
21 -64 26 -87 11 -43 46 -73 85 -73 8 0 15 -4 15 -9 0 -18 108 -50 147 -44 44
7 61 22 85 74 15 34 15 41 2 53 -16 17 -19 30 -4 21 15 -9 24 23 11 39 -6 7
-8 16 -5 19 3 3 2 12 -2 19 -5 7 -9 25 -10 40 -1 14 -12 41 -25 59 -27 38 -32
59 -16 59 7 0 5 5 -3 10 -8 5 -11 10 -6 10 5 0 3 7 -4 15 -7 9 -10 18 -6 22 3
3 -1 17 -9 29 -8 13 -12 29 -9 37 3 8 0 18 -5 22 -6 3 -9 10 -6 15 3 5 1 11
-5 15 -5 3 -10 13 -10 22 0 9 -8 25 -17 35 -14 15 -15 21 -4 27 9 6 10 11 2
15 -6 4 -11 27 -11 51 0 25 -5 45 -12 47 -7 3 -13 15 -13 29 -1 13 -7 35 -14
47 -7 13 -10 26 -7 30 3 3 0 12 -8 21 -8 9 -15 36 -17 61 -1 25 -7 56 -12 70
-5 14 -11 53 -12 88 -2 36 -10 73 -19 87 -9 13 -16 34 -16 45 0 11 -6 23 -14
26 -8 3 -12 12 -10 19 7 17 -26 35 -65 35 -17 0 -54 11 -83 25 -81 37 -247 60
-328 45z m199 -284 c0 -30 -3 -58 -9 -61 -5 -3 -7 -12 -4 -20 3 -7 0 -23 -6
-35 -9 -18 -9 -21 0 -15 20 12 1 -37 -21 -57 -11 -9 -19 -20 -18 -25 1 -4 -3
-21 -9 -36 -7 -16 -12 -44 -12 -64 0 -23 -9 -48 -25 -68 -13 -18 -22 -35 -19
-37 2 -3 -2 -18 -11 -34 -8 -16 -15 -33 -15 -37 0 -5 -6 -15 -14 -23 -8 -8
-20 -40 -26 -72 -13 -62 -32 -88 -96 -133 l-41 -28 -20 22 c-11 12 -18 28 -16
35 3 6 0 12 -6 12 -10 0 -28 55 -37 110 -2 14 -8 45 -13 70 -16 76 -19 100
-11 105 4 2 5 34 3 70 -2 36 1 65 6 65 4 0 6 11 3 25 -2 14 3 40 12 59 9 19
16 39 16 45 0 20 40 91 51 91 6 0 34 17 61 37 28 20 64 38 81 40 17 2 33 5 35
8 3 3 40 5 82 5 l77 0 2 -54z"/>
<path d="M11389 8089 c-90 -14 -119 -42 -112 -107 2 -24 0 -49 -6 -55 -14 -18
-17 -95 -4 -108 7 -7 8 -22 4 -38 -8 -27 -6 -216 3 -241 2 -8 7 -59 10 -112 3
-53 9 -103 12 -111 3 -8 0 -18 -5 -22 -6 -3 -9 -11 -6 -16 4 -5 8 -28 10 -52
2 -23 6 -60 10 -82 3 -22 2 -61 -3 -86 -7 -34 -5 -53 5 -73 12 -22 12 -26 -1
-26 -12 0 -13 -6 -6 -31 5 -18 7 -36 4 -40 -2 -5 1 -17 8 -28 12 -19 37 -29
91 -36 12 -1 34 -8 50 -15 34 -16 80 0 71 25 -5 11 -2 14 10 9 16 -6 20 2 17
36 0 8 5 33 13 55 8 22 12 57 9 80 -3 22 -6 46 -6 53 0 6 -4 12 -9 12 -5 0 -6
5 -3 10 3 6 2 10 -3 10 -5 0 -12 17 -15 38 -3 20 -18 91 -32 157 -26 120 -32
210 -25 393 1 45 7 82 11 82 5 0 9 9 9 21 0 11 5 17 10 14 6 -3 10 1 10 9 0 8
7 22 16 31 9 8 13 22 10 30 -3 8 -2 15 3 15 13 0 19 35 9 54 -7 12 -5 16 9 17
10 0 13 3 6 6 -7 2 -13 15 -13 28 0 13 -7 31 -16 39 -8 9 -13 16 -9 16 3 0 -2
8 -12 19 -22 22 -72 30 -134 20z"/>
<path d="M12485 8010 c-55 -3 -107 -10 -115 -15 -8 -5 -17 -10 -20 -10 -45 -7
-121 -28 -125 -35 -3 -5 -18 -5 -33 -1 -34 10 -80 -2 -97 -26 -11 -15 -31
-170 -29 -225 0 -10 -3 -18 -8 -18 -5 0 -7 -16 -5 -35 3 -19 0 -35 -4 -35 -5
0 -9 -23 -9 -51 0 -31 -4 -48 -10 -44 -5 3 -10 1 -10 -4 0 -6 4 -11 8 -11 5 0
9 -13 10 -30 0 -16 -4 -30 -10 -30 -5 0 -8 -7 -5 -15 4 -8 2 -17 -4 -20 -5 -4
-6 -12 -2 -18 4 -7 8 -41 10 -77 1 -36 4 -99 7 -140 2 -42 0 -80 -5 -86 -7 -8
-6 -15 1 -19 8 -5 8 -11 0 -19 -7 -9 -6 -26 5 -57 8 -24 17 -55 20 -69 3 -14
20 -42 38 -63 26 -30 41 -39 68 -40 19 -1 37 -6 42 -12 4 -6 10 -5 16 4 5 8
16 11 29 7 15 -5 22 -2 27 14 3 11 10 20 15 20 13 0 44 62 41 82 -1 9 3 36 9
59 9 33 9 44 -2 50 -10 7 -10 9 0 9 8 0 11 9 8 27 -3 14 -1 44 3 65 6 27 6 38
-3 38 -8 0 -12 20 -12 58 -1 33 -4 70 -8 85 -3 14 -2 29 4 32 5 3 10 30 10 60
0 30 4 56 10 60 6 3 6 15 0 30 -6 17 -5 27 5 35 11 9 12 16 3 30 -10 16 -8 23
15 45 14 15 29 35 32 45 5 17 20 22 98 35 15 3 27 0 27 -5 0 -6 6 -10 14 -10
29 0 126 -110 126 -143 0 -10 8 -30 18 -44 13 -21 14 -25 2 -18 -12 7 -13 6
-4 -6 6 -8 12 -22 13 -31 1 -10 2 -27 3 -37 1 -11 6 -17 11 -14 4 2 5 -7 1
-21 -4 -16 -2 -26 5 -26 14 0 15 -37 1 -45 -6 -4 -4 -12 5 -21 18 -19 20 -54
3 -54 -10 0 -10 -2 0 -9 8 -5 13 -23 12 -42 -1 -19 -1 -36 0 -39 1 -3 4 -29 7
-59 3 -39 2 -51 -7 -46 -9 6 -9 2 -2 -12 6 -11 10 -34 10 -51 -1 -18 7 -41 16
-51 13 -15 14 -20 4 -24 -9 -4 -8 -6 3 -6 9 -1 20 -8 23 -17 3 -8 11 -12 17
-8 8 4 9 -1 4 -17 -3 -13 -3 -19 2 -14 9 12 36 13 43 3 3 -4 42 -9 85 -11 73
-3 82 -1 103 20 12 13 22 31 22 39 0 7 4 14 9 14 6 0 5 15 -1 37 -7 27 -7 38
1 41 6 2 11 10 11 17 0 7 6 16 13 18 9 4 9 8 1 14 -7 4 -12 24 -12 43 0 35
-14 112 -25 140 -3 8 -8 41 -11 73 -3 32 -8 62 -10 66 -12 19 -24 100 -29 194
-1 29 -8 51 -17 57 -10 7 -11 10 -2 10 6 0 12 9 12 20 0 11 -4 20 -8 20 -12 0
-52 83 -52 107 0 11 -10 31 -23 44 -13 13 -32 39 -42 57 -11 17 -23 32 -28 32
-4 0 -13 5 -20 10 -48 41 -62 50 -73 50 -7 0 -19 6 -26 13 -7 8 -32 16 -55 19
-23 3 -55 14 -70 25 -24 16 -42 17 -128 13z"/>
</g>
</svg>
