<?xml version="1.0" standalone="no"?>
<!DOCTYPE svg PUBLIC "-//W3C//DTD SVG 20010904//EN"
 "http://www.w3.org/TR/2001/REC-SVG-20010904/DTD/svg10.dtd">
<svg version="1.0" xmlns="http://www.w3.org/2000/svg"
 width="668" height="648" viewBox="1294 1348 668 648"
 preserveAspectRatio="xMidYMid meet">

<circle cx="1628" cy="1672" r="300" fill="#DE7356" />

<g transform="translate(0.000000,2480.000000) scale(0.100000,-0.100000)"
fill="#000000" stroke="none">
<path d="M16152 11260 c-13 -6 -47 -10 -75 -10 -93 0 -214 -15 -230 -29 -10
-8 -30 -11 -49 -9 -18 3 -53 -2 -78 -10 -25 -8 -52 -17 -60 -20 -8 -3 -37 -6
-65 -8 -27 -2 -66 -10 -85 -18 -112 -46 -174 -66 -201 -66 -18 0 -47 -9 -65
-21 -18 -11 -55 -22 -81 -24 -73 -6 -204 -39 -338 -85 -84 -29 -115 -41 -190
-75 -16 -8 -42 -16 -56 -19 -14 -3 -55 -28 -92 -56 -36 -27 -70 -50 -75 -50
-4 0 -38 -25 -75 -55 -36 -30 -71 -55 -77 -55 -6 0 -9 -4 -5 -10 3 -5 -7 -17
-22 -26 -37 -23 -53 -38 -144 -125 -41 -41 -84 -81 -95 -90 -10 -8 -35 -34
-54 -57 -19 -23 -40 -42 -46 -42 -14 0 -64 -53 -64 -68 0 -7 -4 -12 -10 -12
-5 0 -37 -35 -71 -77 -33 -43 -69 -84 -80 -92 -10 -7 -19 -19 -19 -27 0 -7 -9
-18 -19 -24 -11 -5 -25 -27 -31 -47 -7 -21 -23 -48 -36 -59 -13 -12 -24 -26
-24 -33 0 -6 -4 -11 -10 -11 -5 0 -10 -6 -10 -13 0 -7 -10 -24 -22 -37 -12
-13 -23 -32 -23 -42 -1 -10 -9 -26 -18 -36 -9 -10 -17 -23 -17 -28 0 -5 -8
-14 -18 -20 -10 -7 -24 -31 -32 -55 -8 -24 -20 -53 -26 -64 -7 -11 -14 -24
-15 -30 -3 -19 -22 -55 -29 -55 -8 0 -31 -72 -35 -108 -1 -13 -12 -37 -24 -52
-11 -16 -21 -36 -21 -45 0 -9 -5 -25 -11 -37 -6 -11 -12 -33 -14 -48 -2 -16
-14 -50 -25 -76 -12 -26 -24 -58 -26 -72 -3 -14 -9 -32 -14 -41 -4 -9 -8 -27
-8 -41 -1 -36 -8 -69 -27 -120 -14 -39 -19 -70 -28 -167 -1 -13 -5 -23 -9 -23
-5 0 -7 -3 -6 -7 1 -5 -4 -21 -10 -36 -7 -16 -10 -50 -8 -75 2 -25 -1 -55 -7
-67 -7 -11 -13 -42 -14 -70 0 -27 -4 -72 -8 -100 -3 -27 -8 -88 -9 -135 -2
-47 -5 -89 -6 -95 -2 -5 0 -41 4 -79 6 -53 5 -71 -6 -77 -9 -6 -10 -9 -1 -9 8
0 12 -15 12 -42 -1 -46 6 -107 16 -148 4 -14 6 -36 6 -49 -1 -12 2 -28 6 -34
4 -6 8 -24 10 -41 2 -16 7 -34 12 -40 5 -6 12 -24 15 -41 6 -33 27 -93 39
-113 5 -6 10 -32 12 -56 2 -24 8 -52 13 -62 38 -71 62 -126 57 -133 -2 -5 6
-19 19 -32 13 -13 29 -41 37 -62 7 -21 21 -46 31 -57 10 -11 18 -25 18 -32 0
-7 9 -24 20 -38 11 -14 20 -33 20 -42 0 -10 5 -18 11 -18 6 0 9 -6 6 -14 -3
-8 1 -20 9 -27 8 -7 31 -46 51 -86 20 -41 43 -79 53 -86 19 -14 60 -99 60
-125 0 -10 5 -23 12 -30 7 -7 8 -12 4 -12 -5 0 3 -9 17 -20 14 -11 38 -45 52
-74 14 -29 37 -63 51 -75 13 -11 24 -29 24 -39 0 -9 23 -42 50 -72 28 -30 50
-58 50 -62 0 -11 89 -98 101 -98 5 0 15 -13 20 -29 6 -17 26 -39 45 -50 19
-11 34 -27 34 -36 0 -9 16 -25 35 -36 19 -12 35 -27 35 -35 0 -7 11 -21 25
-30 14 -9 25 -21 25 -27 0 -5 18 -28 40 -49 21 -21 49 -56 61 -77 12 -22 32
-45 45 -52 13 -7 24 -18 24 -25 0 -8 11 -16 24 -20 15 -3 29 -17 35 -35 7 -20
22 -34 50 -45 23 -9 41 -20 41 -24 0 -14 53 -60 70 -60 23 0 78 -28 87 -45 5
-7 30 -20 56 -29 26 -9 66 -25 87 -36 22 -11 52 -20 68 -20 16 0 35 -7 42 -15
14 -17 91 -53 128 -60 13 -2 32 -10 41 -18 21 -18 103 -57 122 -57 8 0 25 -9
39 -20 14 -11 39 -20 55 -20 17 0 48 -9 70 -20 22 -11 53 -20 69 -20 16 0 37
-7 47 -16 19 -17 69 -32 139 -40 25 -3 52 -7 60 -10 8 -3 29 -8 45 -11 17 -2
48 -11 71 -19 22 -8 44 -14 50 -13 5 2 25 -2 44 -8 19 -6 105 -14 190 -18 85
-3 166 -7 180 -9 14 -2 29 -1 34 2 5 3 59 7 120 9 61 2 131 5 156 7 25 3 86 7
135 11 50 4 100 14 113 22 13 8 38 13 55 12 18 -1 45 3 60 10 16 6 39 11 51
11 29 0 94 26 113 45 7 8 20 12 28 9 7 -3 42 8 77 25 34 17 68 31 75 31 6 0
47 18 90 40 43 22 87 40 98 40 11 0 29 7 39 15 11 8 30 15 42 15 13 0 25 4 28
9 4 5 39 28 79 50 39 23 79 45 87 50 8 5 37 20 63 33 27 12 66 38 87 56 21 17
45 32 54 32 8 0 23 11 32 24 8 14 35 32 59 42 24 9 52 25 61 35 9 11 25 19 35
19 10 0 41 20 69 45 28 25 54 45 58 46 33 3 58 11 60 19 2 6 9 10 16 10 7 0
37 23 66 50 29 28 61 50 70 50 10 0 28 16 41 34 13 19 34 40 46 45 13 6 29 22
35 36 7 16 23 28 39 32 15 3 39 17 52 32 13 14 52 51 86 81 33 29 63 62 66 71
3 10 20 22 36 28 17 6 50 30 74 53 24 24 95 92 159 152 64 61 118 117 121 126
3 9 19 23 36 31 24 11 43 36 84 114 28 55 50 106 48 113 -3 6 0 12 6 12 6 0
11 9 11 19 0 11 13 41 29 68 19 32 37 84 51 153 12 58 28 119 35 135 7 17 17
57 21 90 4 33 13 70 22 82 8 14 13 37 10 58 -2 19 -2 35 2 35 3 0 6 30 6 66 1
37 6 69 10 73 5 3 9 33 10 66 0 33 3 218 7 410 9 489 8 469 8 579 0 54 2 102
5 107 3 5 1 17 -4 26 -6 10 -6 26 -1 40 5 13 5 23 1 23 -5 0 -9 19 -10 43 -1
37 -6 115 -18 242 -4 49 -18 118 -27 132 -4 6 -8 31 -8 55 -1 23 -6 51 -11 62
-6 10 -23 55 -39 100 -16 44 -47 110 -67 146 -21 36 -43 77 -50 93 -6 15 -15
27 -20 27 -4 0 -16 17 -27 38 -27 52 -45 72 -67 72 -10 0 -18 6 -18 13 0 11
-40 56 -85 95 -11 9 -27 31 -35 47 -21 42 -63 95 -76 95 -5 0 -30 20 -55 45
-24 24 -52 45 -61 45 -10 0 -18 7 -18 15 0 8 -4 15 -9 15 -4 0 -39 29 -77 65
-38 35 -76 65 -85 65 -9 0 -36 21 -61 48 -48 50 -123 114 -142 121 -6 2 -26
17 -44 32 -18 16 -39 29 -47 29 -7 0 -35 20 -62 45 -26 25 -52 45 -58 45 -5 0
-32 21 -58 45 -27 25 -57 45 -68 45 -10 0 -24 9 -31 20 -7 11 -17 20 -22 20
-5 0 -19 8 -30 18 -12 10 -45 29 -75 41 -58 25 -97 49 -145 93 -16 14 -43 29
-60 33 -33 6 -76 37 -76 54 0 16 -20 24 -77 32 -29 4 -60 14 -69 23 -8 9 -24
16 -34 16 -10 0 -25 6 -32 13 -16 15 -31 19 -83 25 -22 2 -47 10 -55 17 -18
15 -41 22 -103 30 -27 3 -59 12 -71 20 -15 10 -31 12 -51 6 -23 -6 -36 -3 -57
12 -16 12 -47 21 -75 23 -26 1 -69 9 -95 18 -27 8 -48 13 -48 10 0 -3 -10 1
-22 7 -35 19 -155 42 -228 44 -36 1 -75 5 -87 9 -12 4 -24 3 -27 -2 -3 -5 -28
-6 -58 -1 -29 5 -66 5 -83 2 -34 -8 -92 -7 -150 1 -22 3 -51 1 -63 -4z m193
-283 c55 1 107 3 115 3 52 4 212 -9 222 -17 7 -6 39 -13 72 -17 32 -4 63 -9
68 -13 6 -3 28 -6 49 -7 21 -1 46 -9 56 -18 10 -9 40 -18 68 -19 28 -2 65 -9
83 -16 18 -8 56 -18 85 -24 29 -6 57 -11 62 -13 6 -1 15 -5 21 -9 7 -4 23 -6
35 -5 13 0 49 -7 79 -16 30 -9 84 -26 119 -37 60 -18 201 -101 201 -118 0 -4
18 -17 40 -30 22 -12 40 -20 40 -17 0 3 11 -6 25 -19 13 -14 32 -25 42 -25 10
0 28 -11 40 -24 13 -13 39 -32 60 -41 20 -10 46 -26 57 -36 11 -11 28 -19 38
-19 10 0 18 -6 18 -12 0 -7 21 -26 48 -43 26 -16 57 -40 70 -52 13 -13 31 -23
41 -23 23 0 143 -90 169 -127 11 -16 41 -39 66 -52 26 -12 44 -27 41 -32 -4
-5 -2 -9 3 -9 5 0 26 -16 48 -35 21 -19 57 -50 79 -70 22 -19 45 -35 51 -35 6
0 26 -16 45 -35 19 -19 38 -35 42 -35 4 0 25 -17 45 -37 21 -21 80 -76 130
-123 51 -47 95 -95 98 -106 3 -12 16 -27 30 -34 13 -8 24 -18 24 -24 0 -6 32
-63 72 -126 66 -106 109 -209 112 -267 0 -13 4 -23 8 -23 9 0 33 -72 29 -89
-1 -7 1 -20 5 -30 4 -9 6 -32 5 -51 0 -19 6 -80 15 -135 8 -55 15 -111 15
-125 1 -76 1 -250 0 -279 -1 -18 4 -40 10 -47 8 -10 8 -14 0 -14 -6 0 -10 -16
-10 -37 1 -21 0 -56 -1 -78 -1 -22 -1 -42 0 -45 6 -22 8 -85 3 -94 -10 -15
-13 -146 -3 -146 4 0 5 -19 3 -42 -2 -24 -5 -92 -7 -153 -2 -60 -6 -117 -9
-125 -4 -8 -8 -53 -11 -100 -2 -47 -9 -97 -15 -112 -7 -20 -7 -28 0 -28 7 0 9
-10 4 -27 -4 -16 -9 -39 -11 -52 -14 -71 -64 -245 -78 -265 -8 -13 -17 -43
-20 -66 -3 -24 -14 -61 -25 -83 -11 -22 -18 -44 -15 -49 3 -4 2 -8 -3 -8 -4 0
-21 -29 -38 -65 -16 -35 -40 -69 -51 -76 -12 -6 -27 -22 -32 -34 -12 -27 -35
-56 -74 -98 -16 -16 -28 -32 -28 -37 0 -4 -13 -13 -30 -20 -16 -7 -51 -34 -77
-61 -26 -27 -52 -49 -57 -49 -5 0 -18 -9 -30 -20 -12 -11 -52 -49 -90 -85 -38
-36 -75 -65 -81 -65 -6 0 -21 -10 -32 -22 -11 -13 -53 -52 -94 -88 -40 -36
-92 -84 -115 -107 -24 -24 -50 -43 -58 -43 -8 0 -21 -6 -28 -12 -34 -32 -98
-78 -107 -78 -6 0 -11 -4 -11 -9 0 -5 -15 -14 -34 -21 -19 -6 -47 -22 -62 -35
-16 -14 -37 -25 -47 -25 -10 0 -20 -7 -23 -15 -4 -8 -12 -15 -20 -15 -8 0 -23
-9 -34 -20 -11 -11 -32 -23 -47 -26 -15 -4 -36 -18 -46 -31 -10 -13 -25 -23
-33 -23 -8 0 -24 -12 -37 -26 -12 -14 -35 -32 -52 -39 -16 -7 -43 -24 -58 -39
-15 -14 -31 -26 -34 -26 -11 0 -134 -63 -139 -72 -3 -4 -13 -8 -23 -8 -10 0
-26 -9 -36 -20 -10 -11 -29 -20 -42 -20 -12 0 -23 -4 -23 -10 0 -5 -8 -10 -17
-10 -10 0 -30 -11 -46 -24 -15 -13 -49 -29 -75 -36 -26 -6 -62 -21 -81 -32
-19 -12 -56 -25 -83 -29 -26 -4 -61 -17 -77 -28 -16 -12 -40 -21 -54 -21 -13
0 -30 -6 -36 -14 -12 -14 -77 -29 -211 -45 -47 -6 -107 -14 -135 -18 -27 -4
-163 -7 -302 -6 -204 2 -263 5 -310 19 -32 10 -73 16 -92 15 -18 -1 -44 5 -57
14 -13 8 -39 15 -58 15 -19 0 -37 4 -40 9 -7 10 -86 31 -139 37 -21 2 -50 13
-64 24 -14 11 -39 20 -55 20 -16 0 -31 6 -34 15 -4 8 -10 13 -14 10 -4 -3 -28
6 -53 19 -25 13 -76 36 -113 49 -65 24 -125 51 -184 82 -14 7 -56 27 -95 45
-38 18 -86 41 -106 51 -20 10 -46 19 -56 19 -11 0 -30 9 -43 20 -13 11 -27 20
-32 20 -4 0 -17 8 -27 18 -11 9 -44 35 -75 57 -30 22 -59 50 -65 62 -5 11 -23
29 -40 39 -17 10 -31 26 -31 35 0 16 -102 143 -167 207 -18 18 -33 36 -33 40
0 12 -114 122 -126 122 -12 0 -64 55 -64 68 0 5 -10 18 -22 29 -41 37 -65 68
-71 88 -4 11 -18 32 -32 48 -15 15 -33 43 -40 62 -8 18 -26 45 -39 60 -13 14
-27 37 -30 51 -4 14 -22 46 -40 72 -19 26 -38 60 -41 75 -4 15 -11 30 -16 33
-5 3 -16 20 -25 37 -23 48 -45 89 -62 117 -9 14 -17 27 -17 30 -1 6 -50 85
-76 122 -10 14 -20 38 -23 52 -3 14 -13 38 -24 54 -11 15 -25 45 -32 67 -12
38 -18 52 -39 93 -5 9 -17 41 -26 71 -9 29 -25 66 -36 81 -12 15 -22 45 -24
67 -3 22 -11 60 -19 84 -8 24 -15 53 -16 64 -1 28 -6 73 -13 115 -10 53 -15
200 -8 200 3 0 7 33 8 73 2 70 9 149 18 197 4 22 18 193 19 233 0 9 5 17 10
17 5 0 6 3 3 7 -4 3 -2 12 4 20 7 7 13 28 14 46 5 57 16 118 26 145 6 15 9 40
8 57 -2 16 5 42 14 56 10 14 15 33 12 42 -4 8 -2 18 4 21 5 4 13 28 17 54 4
26 15 66 25 90 10 23 18 43 18 45 -1 6 22 65 36 90 8 16 15 36 15 45 0 9 7 30
15 46 8 15 15 33 15 38 0 14 30 78 52 110 10 14 16 33 12 41 -3 8 2 21 10 30
9 9 16 20 16 25 0 5 12 22 27 38 15 16 25 29 22 29 -2 0 7 18 21 40 13 22 27
45 30 50 11 22 83 124 130 185 27 36 53 72 57 80 4 8 15 21 25 28 10 7 18 19
18 25 0 7 13 21 30 30 16 10 37 30 45 45 9 15 32 38 51 50 19 13 37 29 41 38
11 31 75 84 101 85 68 2 111 28 241 149 21 19 55 49 76 65 48 38 71 60 76 71
2 5 22 21 44 36 36 24 51 28 120 29 44 1 100 8 124 16 24 8 51 16 60 18 22 5
87 21 136 35 22 6 51 14 65 16 14 3 34 9 45 14 11 4 53 15 94 24 41 9 79 23
86 32 6 9 26 17 45 20 47 5 113 20 180 40 30 8 73 20 95 24 76 17 120 28 135
34 8 3 29 8 45 10 17 2 58 9 93 17 46 10 68 10 80 2 13 -8 24 -7 45 4 16 8 35
12 43 9 7 -3 16 -1 19 3 3 5 20 6 37 2 18 -3 78 -5 133 -4z"/>
<path d="M16033 9123 c-59 -11 -93 -139 -58 -218 10 -22 19 -43 19 -47 3 -21
38 -46 74 -52 93 -14 177 65 187 177 5 51 3 60 -19 82 -13 13 -37 27 -53 31
-15 4 -34 13 -41 21 -13 12 -62 15 -109 6z"/>
<path d="M18394 9045 c-4 -8 -14 -15 -24 -15 -14 0 -20 -15 -29 -74 -7 -41
-18 -80 -26 -86 -7 -6 -13 -26 -13 -45 0 -18 -5 -49 -11 -67 -5 -18 -13 -60
-16 -93 -3 -33 -12 -79 -20 -102 -8 -23 -15 -59 -16 -80 -1 -21 -7 -47 -13
-58 -6 -11 -11 -24 -12 -30 -3 -32 -18 -93 -29 -115 -15 -31 -18 -97 -5 -105
6 -3 10 -19 10 -35 0 -16 10 -41 23 -55 l22 -26 73 16 c85 20 134 53 114 78
-7 8 -9 17 -3 19 5 1 12 21 16 43 16 101 28 192 29 218 1 15 3 27 6 27 4 0 4
16 2 35 -2 19 0 41 6 48 6 6 10 44 10 84 0 39 5 79 10 90 9 17 17 135 15 210
-2 45 -32 103 -53 103 -10 0 -25 7 -34 15 -8 8 -17 15 -21 15 -3 0 -8 -7 -11
-15z"/>
<path d="M17622 8915 c3 -4 -1 -15 -10 -26 -17 -20 -44 -98 -37 -109 4 -7 -8
-66 -36 -185 -5 -22 -14 -65 -18 -95 -5 -30 -13 -71 -19 -90 -5 -20 -7 -44 -5
-55 4 -21 -13 -113 -28 -155 -5 -14 -10 -47 -11 -73 0 -26 -4 -49 -7 -52 -4
-2 -6 -23 -4 -47 2 -24 4 -50 4 -58 1 -27 30 -80 43 -80 8 0 16 -6 19 -14 3
-8 31 -26 62 -41 49 -24 68 -28 153 -28 105 -1 122 4 142 43 19 34 24 111 9
121 -10 6 -10 11 0 23 12 15 8 20 -11 17 -5 0 -8 3 -8 8 0 8 -26 13 -148 28
l-44 5 7 57 c3 31 10 70 16 87 18 59 27 134 15 134 -6 0 -4 5 4 10 8 5 10 10
4 10 -7 0 -9 11 -6 25 5 28 6 28 30 16 60 -31 195 -37 191 -8 -1 7 1 25 6 40
10 39 -8 75 -46 91 -17 7 -36 24 -43 37 -6 13 -28 32 -49 42 -34 16 -44 35
-38 71 1 5 3 51 5 102 3 89 2 95 -23 122 -21 23 -35 29 -76 31 -27 1 -47 -1
-43 -4z"/>
<path d="M16690 8643 c-36 -15 -42 -32 -39 -116 5 -132 3 -305 -5 -402 -14
-159 -8 -218 25 -254 16 -17 29 -20 66 -17 29 2 51 10 59 21 17 23 36 115 39
188 6 118 17 179 40 213 13 19 31 56 41 83 26 72 88 95 121 45 15 -23 17 -51
15 -212 -2 -102 -5 -190 -9 -195 -14 -23 -12 -119 3 -148 13 -27 20 -30 52
-28 21 2 43 0 50 -5 29 -18 73 20 79 69 15 110 23 506 12 545 -29 99 -70 157
-122 171 -23 6 -49 14 -57 16 -8 3 -42 7 -75 8 -68 3 -125 -17 -164 -59 -34
-37 -47 -33 -61 19 -10 37 -36 68 -52 64 -2 0 -10 -3 -18 -6z"/>
<path d="M16110 8587 c-29 -10 -36 -18 -40 -47 -7 -49 7 -187 24 -235 8 -22
17 -57 20 -79 3 -21 19 -67 36 -102 17 -35 30 -79 30 -100 0 -40 36 -108 52
-98 5 3 19 -3 31 -14 34 -31 59 -40 95 -36 42 5 52 11 46 28 -3 8 -1 17 4 20
14 9 7 100 -11 136 -18 35 -26 81 -41 230 -4 36 -12 98 -18 138 l-11 72 -72
44 c-89 54 -101 58 -145 43z"/>
<path d="M15747 8472 c-10 -10 -17 -24 -17 -31 0 -9 -32 -11 -122 -9 -120 3
-215 -4 -254 -18 -29 -11 -73 -57 -74 -76 0 -10 -5 -18 -10 -18 -6 0 -10 -6
-8 -12 1 -7 -3 -29 -9 -48 -14 -43 -14 -50 -15 -175 0 -117 5 -145 34 -189 20
-30 81 -81 103 -86 6 -1 18 -6 28 -12 49 -26 186 -12 232 24 60 47 75 62 75
77 0 27 24 71 38 71 7 0 15 -8 19 -17 3 -10 16 -41 29 -70 13 -28 24 -56 24
-60 0 -5 15 -23 33 -40 39 -37 90 -47 113 -22 18 20 22 73 6 91 -6 7 -10 37
-9 65 0 35 -5 58 -15 70 -9 10 -17 21 -17 26 1 29 -49 208 -72 262 -5 11 -11
34 -12 50 -4 37 -36 135 -50 153 -13 17 -31 15 -50 -6z m-117 -217 c13 -35 -2
-104 -34 -159 -15 -26 -24 -50 -21 -56 8 -14 -36 -50 -61 -50 -13 0 -34 5 -48
11 -27 13 -32 33 -35 145 -3 98 13 117 106 125 37 3 71 7 76 7 4 1 12 -9 17
-23z"/>
<path d="M14590 8295 c-138 -27 -218 -73 -205 -116 4 -11 -1 -21 -12 -28 -10
-6 -13 -11 -6 -11 7 0 11 -20 10 -57 0 -37 7 -76 20 -108 31 -77 45 -117 50
-147 3 -16 9 -28 14 -28 5 0 9 -8 9 -19 0 -10 6 -24 14 -30 8 -6 17 -37 21
-69 9 -74 28 -118 54 -127 12 -3 19 -10 17 -14 -3 -4 4 -20 15 -37 10 -16 19
-38 19 -49 0 -11 6 -29 13 -40 13 -19 47 -123 82 -250 9 -33 26 -83 37 -112
10 -28 20 -66 20 -85 1 -18 8 -48 15 -67 8 -19 21 -70 28 -114 17 -94 35 -127
70 -127 14 0 25 4 25 9 0 5 28 7 61 5 64 -3 76 2 98 44 12 23 9 61 -9 112 -5
14 -11 52 -13 85 -5 64 -21 137 -43 195 -7 19 -15 48 -19 64 -3 16 -17 43 -31
61 -13 17 -24 38 -24 46 0 8 -7 23 -16 34 -15 20 -74 194 -74 220 0 8 6 15 14
15 8 0 27 5 43 12 15 6 39 13 53 15 22 3 110 83 92 83 -4 0 1 5 11 11 9 5 17
15 17 20 0 6 7 17 16 26 8 9 13 21 10 29 -3 7 0 14 5 16 11 4 16 193 6 245 -3
18 -15 45 -26 59 -12 15 -21 32 -21 39 0 25 -118 134 -176 163 -73 36 -185 47
-284 27z m178 -211 c21 -9 43 -19 51 -23 25 -13 80 -133 87 -190 3 -32 -42
-91 -70 -91 -12 0 -27 -5 -32 -10 -6 -6 -33 -13 -60 -16 -45 -5 -51 -3 -75 23
-14 15 -35 62 -48 103 -12 41 -25 82 -28 90 -4 8 -11 33 -17 55 -11 37 -10 41
14 57 32 23 129 24 178 2z"/>
<path d="M18205 7881 c-22 -11 -44 -20 -48 -21 -19 0 -33 -27 -35 -65 -2 -33
4 -48 35 -87 44 -54 75 -68 149 -68 45 0 56 4 69 23 38 59 35 176 -6 213 -29
27 -115 29 -164 5z"/>
</g>
</svg>
