<?xml version="1.0" standalone="no"?>
<!DOCTYPE svg PUBLIC "-//W3C//DTD SVG 20010904//EN"
 "http://www.w3.org/TR/2001/REC-SVG-20010904/DTD/svg10.dtd">
<svg version="1.0" xmlns="http://www.w3.org/2000/svg"
 width="902" height="952" viewBox="1175 1182 902 952"
 preserveAspectRatio="xMidYMid meet">

<circle cx="1626" cy="1658" r="300" fill="#DE7356" />

<g transform="translate(0.000000,2480.000000) scale(0.100000,-0.100000)"
fill="#000000" stroke="none">
<path d="M15995 12917 c-10 -8 -19 -28 -21 -45 -11 -96 -15 -148 -19 -247 -11
-248 -12 -395 -3 -401 5 -3 6 -14 3 -24 -4 -12 1 -26 13 -38 10 -10 17 -23 15
-29 -2 -6 3 -13 12 -16 8 -4 15 -1 15 6 0 9 2 9 8 -1 5 -7 33 -13 69 -15 54
-2 63 1 82 23 11 14 20 37 21 51 0 15 7 32 15 39 8 7 13 15 11 19 -3 4 -7 27
-10 51 -3 25 -12 72 -21 104 -10 38 -16 105 -16 180 -1 155 -15 270 -40 318
-18 36 -22 38 -67 38 -27 0 -56 -6 -67 -13z"/>
<path d="M17684 12665 c-8 -11 -14 -29 -14 -41 0 -13 -12 -37 -26 -54 -15 -17
-24 -34 -20 -37 3 -3 1 -11 -4 -18 -9 -11 -16 -52 -26 -175 -3 -35 -10 -72
-15 -82 -5 -10 -10 -49 -11 -88 0 -39 -5 -73 -9 -76 -5 -2 -4 -15 1 -28 5 -13
6 -26 3 -29 -3 -3 0 -22 7 -41 13 -41 54 -73 90 -71 14 1 40 2 57 3 27 2 35 8
49 40 9 20 18 53 20 72 2 19 8 71 13 115 20 162 24 213 27 335 2 119 -8 190
-29 190 -4 0 -5 -6 -2 -12 4 -7 1 -6 -7 2 -20 23 -87 19 -104 -5z"/>
<path d="M14241 12320 c-37 -4 -46 -9 -51 -30 -7 -25 -5 -111 3 -160 5 -30 45
-130 58 -146 5 -6 6 -14 2 -17 -3 -4 -2 -7 4 -7 12 0 29 -39 38 -90 4 -19 15
-44 25 -55 10 -11 24 -40 31 -65 7 -25 23 -57 37 -72 24 -26 25 -26 70 -13 69
21 96 56 96 124 0 47 -8 73 -52 164 -29 59 -52 112 -52 117 0 6 -4 10 -10 10
-5 0 -10 9 -10 20 0 12 -9 38 -20 60 -11 22 -20 45 -20 53 0 20 -47 79 -78 97
-19 11 -41 14 -71 10z"/>
<path d="M18784 12080 c-16 -11 -43 -36 -59 -57 -53 -67 -217 -223 -236 -223
-5 0 -9 -8 -9 -18 0 -11 -8 -26 -18 -36 -29 -26 -48 -118 -32 -156 18 -43 53
-68 92 -65 18 2 40 3 49 4 21 1 79 51 79 68 0 8 18 32 39 53 67 68 127 143
140 177 7 17 19 34 27 37 23 9 70 82 68 107 -2 42 -16 84 -33 100 -27 26 -73
30 -107 9z"/>
<path d="M12765 11280 c-44 -17 -70 -56 -70 -107 0 -44 4 -52 43 -88 23 -22
73 -69 111 -105 37 -36 85 -79 107 -97 21 -18 67 -55 100 -83 34 -27 69 -50
78 -50 9 0 34 -9 56 -20 24 -12 59 -20 89 -20 46 0 52 3 66 31 13 24 14 37 6
60 -5 16 -7 29 -4 29 13 0 -34 44 -102 95 -69 52 -96 74 -145 118 -14 12 -47
38 -74 57 -26 19 -72 57 -101 84 -30 26 -62 54 -72 61 -55 37 -69 43 -88 35z"/>
<path d="M16152 11260 c-13 -6 -47 -10 -75 -10 -93 0 -214 -15 -230 -29 -10
-8 -30 -11 -49 -9 -18 3 -53 -2 -78 -10 -25 -8 -52 -17 -60 -20 -8 -3 -37 -6
-65 -8 -27 -2 -66 -10 -85 -18 -112 -46 -174 -66 -201 -66 -18 0 -47 -9 -65
-21 -18 -11 -55 -22 -81 -24 -73 -6 -204 -39 -338 -85 -84 -29 -115 -41 -190
-75 -16 -8 -42 -16 -56 -19 -14 -3 -55 -28 -92 -56 -36 -27 -70 -50 -75 -50
-4 0 -38 -25 -75 -55 -36 -30 -71 -55 -77 -55 -6 0 -9 -4 -5 -10 3 -5 -7 -17
-22 -26 -37 -23 -53 -38 -144 -125 -41 -41 -84 -81 -95 -90 -10 -8 -35 -34
-54 -57 -19 -23 -40 -42 -46 -42 -14 0 -64 -53 -64 -68 0 -7 -4 -12 -10 -12
-5 0 -37 -35 -71 -77 -33 -43 -69 -84 -80 -92 -10 -7 -19 -19 -19 -27 0 -7 -9
-18 -19 -24 -11 -5 -25 -27 -31 -47 -7 -21 -23 -48 -36 -59 -13 -12 -24 -26
-24 -33 0 -6 -4 -11 -10 -11 -5 0 -10 -6 -10 -13 0 -7 -10 -24 -22 -37 -12
-13 -23 -32 -23 -42 -1 -10 -9 -26 -18 -36 -9 -10 -17 -23 -17 -28 0 -5 -8
-14 -18 -20 -10 -7 -24 -31 -32 -55 -8 -24 -20 -53 -26 -64 -7 -11 -14 -24
-15 -30 -3 -19 -22 -55 -29 -55 -8 0 -31 -72 -35 -108 -1 -13 -12 -37 -24 -52
-11 -16 -21 -36 -21 -45 0 -9 -5 -25 -11 -37 -6 -11 -12 -33 -14 -48 -2 -16
-14 -50 -25 -76 -12 -26 -24 -58 -26 -72 -3 -14 -9 -32 -14 -41 -4 -9 -8 -27
-8 -41 -1 -36 -8 -69 -27 -120 -14 -39 -19 -70 -28 -167 -1 -13 -5 -23 -9 -23
-5 0 -7 -3 -6 -7 1 -5 -4 -21 -10 -36 -7 -16 -10 -50 -8 -75 2 -25 -1 -55 -7
-67 -7 -11 -13 -42 -14 -70 0 -27 -4 -72 -8 -100 -3 -27 -8 -88 -9 -135 -2
-47 -5 -89 -6 -95 -2 -5 0 -41 4 -79 6 -53 5 -71 -6 -77 -9 -6 -10 -9 -1 -9 8
0 12 -15 12 -42 -1 -46 6 -107 16 -148 4 -14 6 -36 6 -49 -1 -12 2 -28 6 -34
4 -6 8 -24 10 -41 2 -16 7 -34 12 -40 5 -6 12 -24 15 -41 6 -33 27 -93 39
-113 5 -6 10 -32 12 -56 2 -24 8 -52 13 -62 38 -71 62 -126 57 -133 -2 -5 6
-19 19 -32 13 -13 29 -41 37 -62 7 -21 21 -46 31 -57 10 -11 18 -25 18 -32 0
-7 9 -24 20 -38 11 -14 20 -33 20 -42 0 -10 5 -18 11 -18 6 0 9 -6 6 -14 -3
-8 1 -20 9 -27 8 -7 31 -46 51 -86 20 -41 43 -79 53 -86 19 -14 60 -99 60
-125 0 -10 5 -23 12 -30 7 -7 8 -12 4 -12 -5 0 3 -9 17 -20 14 -11 38 -45 52
-74 14 -29 37 -63 51 -75 13 -11 24 -29 24 -39 0 -9 23 -42 50 -72 28 -30 50
-58 50 -62 0 -11 89 -98 101 -98 5 0 15 -13 20 -29 6 -17 26 -39 45 -50 19
-11 34 -27 34 -36 0 -9 16 -25 35 -36 19 -12 35 -27 35 -35 0 -7 11 -21 25
-30 14 -9 25 -21 25 -27 0 -5 18 -28 40 -49 21 -21 49 -56 61 -77 12 -22 32
-45 45 -52 13 -7 24 -18 24 -25 0 -8 11 -16 24 -20 15 -3 29 -17 35 -35 7 -20
22 -34 50 -45 23 -9 41 -20 41 -24 0 -14 53 -60 70 -60 23 0 78 -28 87 -45 5
-7 30 -20 56 -29 26 -9 66 -25 87 -36 22 -11 52 -20 68 -20 16 0 35 -7 42 -15
14 -17 91 -53 128 -60 13 -2 32 -10 41 -18 21 -18 103 -57 122 -57 8 0 25 -9
39 -20 14 -11 39 -20 55 -20 17 0 48 -9 70 -20 22 -11 53 -20 69 -20 16 0 37
-7 47 -16 19 -17 69 -32 139 -40 25 -3 52 -7 60 -10 8 -3 29 -8 45 -11 17 -2
48 -11 71 -19 22 -8 44 -14 50 -13 5 2 25 -2 44 -8 19 -6 105 -14 190 -18 85
-3 166 -7 180 -9 14 -2 29 -1 34 2 5 3 59 7 120 9 61 2 131 5 156 7 25 3 86 7
135 11 50 4 100 14 113 22 13 8 38 13 55 12 18 -1 45 3 60 10 16 6 39 11 51
11 29 0 94 26 113 45 7 8 20 12 28 9 7 -3 42 8 77 25 34 17 68 31 75 31 6 0
47 18 90 40 43 22 87 40 98 40 11 0 29 7 39 15 11 8 30 15 42 15 13 0 25 4 28
9 4 5 39 28 79 50 39 23 79 45 87 50 8 5 37 20 63 33 27 12 66 38 87 56 21 17
45 32 54 32 8 0 23 11 32 24 8 14 35 32 59 42 24 9 52 25 61 35 9 11 25 19 35
19 10 0 41 20 69 45 28 25 54 45 58 46 33 3 58 11 60 19 2 6 9 10 16 10 7 0
37 23 66 50 29 28 61 50 70 50 10 0 28 16 41 34 13 19 34 40 46 45 13 6 29 22
35 36 7 16 23 28 39 32 15 3 39 17 52 32 13 14 52 51 86 81 33 29 63 62 66 71
3 10 20 22 36 28 17 6 50 30 74 53 24 24 95 92 159 152 64 61 118 117 121 126
3 9 19 23 36 31 24 11 43 36 84 114 28 55 50 106 48 113 -3 6 0 12 6 12 6 0
11 9 11 19 0 11 13 41 29 68 19 32 37 84 51 153 12 58 28 119 35 135 7 17 17
57 21 90 4 33 13 70 22 82 8 14 13 37 10 58 -2 19 -2 35 2 35 3 0 6 30 6 66 1
37 6 69 10 73 5 3 9 33 10 66 0 33 3 218 7 410 9 489 8 469 8 579 0 54 2 102
5 107 3 5 1 17 -4 26 -6 10 -6 26 -1 40 5 13 5 23 1 23 -5 0 -9 19 -10 43 -1
37 -6 115 -18 242 -4 49 -18 118 -27 132 -4 6 -8 31 -8 55 -1 23 -6 51 -11 62
-6 10 -23 55 -39 100 -16 44 -47 110 -67 146 -21 36 -43 77 -50 93 -6 15 -15
27 -20 27 -4 0 -16 17 -27 38 -27 52 -45 72 -67 72 -10 0 -18 6 -18 13 0 11
-40 56 -85 95 -11 9 -27 31 -35 47 -21 42 -63 95 -76 95 -5 0 -30 20 -55 45
-24 24 -52 45 -61 45 -10 0 -18 7 -18 15 0 8 -4 15 -9 15 -4 0 -39 29 -77 65
-38 35 -76 65 -85 65 -9 0 -36 21 -61 48 -48 50 -123 114 -142 121 -6 2 -26
17 -44 32 -18 16 -39 29 -47 29 -7 0 -35 20 -62 45 -26 25 -52 45 -58 45 -5 0
-32 21 -58 45 -27 25 -57 45 -68 45 -10 0 -24 9 -31 20 -7 11 -17 20 -22 20
-5 0 -19 8 -30 18 -12 10 -45 29 -75 41 -58 25 -97 49 -145 93 -16 14 -43 29
-60 33 -33 6 -76 37 -76 54 0 16 -20 24 -77 32 -29 4 -60 14 -69 23 -8 9 -24
16 -34 16 -10 0 -25 6 -32 13 -16 15 -31 19 -83 25 -22 2 -47 10 -55 17 -18
15 -41 22 -103 30 -27 3 -59 12 -71 20 -15 10 -31 12 -51 6 -23 -6 -36 -3 -57
12 -16 12 -47 21 -75 23 -26 1 -69 9 -95 18 -27 8 -48 13 -48 10 0 -3 -10 1
-22 7 -35 19 -155 42 -228 44 -36 1 -75 5 -87 9 -12 4 -24 3 -27 -2 -3 -5 -28
-6 -58 -1 -29 5 -66 5 -83 2 -34 -8 -92 -7 -150 1 -22 3 -51 1 -63 -4z m29
-287 c13 8 27 8 53 0 19 -6 38 -8 41 -5 10 10 39 11 50 2 5 -4 24 -6 40 -4 70
9 156 11 161 3 3 -5 14 -4 25 2 11 5 30 7 42 3 12 -4 35 -7 52 -6 16 0 38 -6
47 -15 11 -10 26 -13 43 -9 14 4 40 0 61 -9 20 -8 46 -12 59 -9 14 3 34 -1 51
-12 15 -10 50 -21 78 -25 28 -4 87 -17 131 -29 117 -32 117 -32 160 -37 22 -3
44 -9 50 -14 5 -5 19 -9 32 -9 13 0 23 -4 23 -9 0 -5 9 -7 19 -4 10 3 40 -5
66 -16 26 -12 53 -21 60 -21 6 0 30 -12 51 -28 21 -15 51 -33 66 -41 16 -8 35
-25 43 -38 9 -12 21 -23 29 -23 7 0 32 -13 54 -30 23 -16 48 -30 55 -30 8 0
21 -8 30 -17 9 -10 37 -29 63 -43 26 -14 56 -33 66 -42 10 -10 23 -18 29 -18
6 0 27 -16 46 -35 19 -19 41 -35 47 -35 7 0 23 -11 36 -25 13 -14 41 -30 62
-35 21 -6 38 -14 38 -19 0 -5 17 -20 38 -34 20 -14 63 -51 95 -81 32 -31 63
-56 69 -56 6 0 21 -10 32 -22 51 -53 149 -134 174 -145 16 -6 42 -28 59 -47
17 -20 35 -36 40 -36 13 0 54 -45 47 -52 -3 -3 7 -9 23 -12 16 -4 37 -20 48
-36 11 -17 46 -51 77 -77 31 -26 63 -59 70 -73 7 -14 21 -33 33 -42 11 -9 20
-21 20 -25 0 -5 27 -51 60 -103 33 -52 59 -98 57 -102 -1 -4 2 -8 7 -8 13 0
68 -161 62 -184 -1 -4 4 -14 10 -22 7 -8 9 -17 6 -21 -4 -3 -1 -13 6 -21 6 -8
13 -25 14 -36 1 -12 4 -41 7 -66 2 -25 8 -83 11 -130 4 -46 10 -91 14 -100 4
-8 7 -97 7 -197 -1 -101 3 -183 7 -183 5 0 5 -5 1 -12 -4 -6 -8 -70 -10 -142
-1 -72 -3 -156 -4 -186 -1 -30 1 -62 4 -70 8 -19 3 -121 -6 -136 -4 -5 -3 -16
2 -24 5 -8 5 -22 -1 -32 -7 -12 -6 -18 2 -18 7 0 9 -10 5 -27 -12 -52 -24
-157 -27 -240 -1 -24 -5 -43 -9 -43 -5 0 -7 -12 -5 -26 2 -20 -16 -132 -29
-179 -2 -5 -6 -27 -11 -48 -4 -20 -11 -40 -16 -42 -4 -3 -6 -12 -3 -19 3 -7
-4 -31 -15 -52 -11 -22 -25 -63 -31 -92 -5 -28 -16 -62 -24 -74 -7 -13 -16
-35 -20 -50 -4 -16 -11 -28 -16 -28 -5 0 -7 -7 -4 -15 4 -8 2 -15 -3 -15 -5 0
-17 -18 -27 -41 -10 -23 -28 -44 -42 -49 -13 -5 -24 -17 -24 -25 0 -36 -107
-154 -158 -174 -18 -8 -31 -16 -29 -18 7 -6 -46 -63 -59 -63 -7 0 -14 -3 -16
-7 -1 -5 -32 -32 -68 -61 -36 -30 -75 -66 -87 -82 -12 -15 -36 -33 -53 -40
-16 -7 -30 -19 -30 -26 0 -8 -5 -14 -11 -14 -6 0 -28 -17 -48 -37 -73 -73
-176 -163 -206 -181 -70 -40 -105 -65 -105 -73 0 -5 -7 -9 -15 -9 -8 0 -24 -9
-35 -20 -11 -11 -26 -20 -34 -20 -8 0 -28 -11 -44 -25 -17 -14 -38 -25 -49
-25 -10 0 -24 -9 -31 -20 -7 -11 -19 -20 -27 -20 -8 0 -22 -9 -32 -19 -10 -11
-29 -21 -43 -23 -14 -2 -39 -17 -56 -33 -49 -48 -87 -75 -113 -82 -13 -3 -39
-22 -57 -42 -19 -19 -34 -32 -34 -29 0 4 -28 -9 -62 -28 -35 -19 -81 -44 -103
-54 -22 -11 -47 -24 -55 -29 -8 -5 -28 -14 -45 -21 -36 -15 -44 -19 -78 -43
-13 -10 -42 -21 -63 -24 -22 -3 -53 -16 -70 -29 -17 -13 -44 -26 -60 -28 -70
-13 -90 -19 -105 -32 -9 -8 -30 -16 -46 -18 -17 -3 -39 -9 -49 -14 -47 -25
-115 -42 -185 -45 -42 -3 -81 -7 -86 -10 -36 -22 -616 -25 -652 -3 -13 9 -79
19 -111 18 -14 -1 -44 8 -67 18 -23 11 -49 17 -58 14 -8 -4 -21 -1 -28 4 -12
10 -89 32 -127 36 -9 1 -21 5 -28 10 -6 4 -16 5 -21 2 -5 -3 -14 0 -20 8 -6 7
-32 19 -56 26 -25 7 -48 17 -51 21 -3 5 -16 9 -30 9 -13 0 -24 4 -24 8 0 5
-18 15 -40 22 -22 7 -45 19 -51 27 -6 7 -18 13 -26 13 -22 0 -113 34 -113 42
0 3 -13 9 -30 13 -16 4 -30 10 -30 14 0 10 -46 31 -69 31 -11 0 -21 6 -24 14
-3 8 -28 20 -56 27 -28 7 -51 16 -51 19 0 10 -48 30 -70 30 -24 0 -106 54
-114 76 -3 8 -10 12 -16 9 -6 -3 -13 1 -16 9 -3 9 -12 16 -20 16 -19 0 -81 61
-89 87 -3 13 -9 22 -13 21 -21 -6 -52 16 -52 35 0 12 -14 38 -31 57 -139 159
-244 275 -252 278 -4 2 -5 7 -3 11 3 4 -11 14 -30 21 -19 8 -44 29 -55 46 -11
18 -39 52 -63 76 -23 24 -41 49 -38 56 2 6 -1 12 -7 12 -6 0 -11 6 -11 13 0 8
-9 22 -21 33 -19 17 -70 106 -69 119 1 4 -9 15 -22 25 -13 11 -20 19 -15 20 4
0 0 15 -10 33 -9 17 -16 35 -15 40 1 4 -5 7 -13 7 -13 0 -26 20 -49 80 -4 8
-17 33 -31 55 -13 22 -35 63 -49 90 -13 28 -36 67 -50 88 -14 21 -26 42 -26
47 0 4 -3 10 -7 12 -10 4 -49 76 -58 108 -4 14 -15 36 -25 50 -17 26 -41 86
-50 125 -1 6 -5 15 -10 20 -13 16 -50 118 -45 124 3 2 -4 10 -15 18 -11 8 -17
20 -14 28 4 8 1 15 -6 15 -6 0 -9 4 -5 9 3 5 1 13 -5 16 -6 4 -8 15 -5 25 3 9
1 30 -5 45 -7 19 -7 31 0 40 8 9 5 14 -11 18 -16 4 -19 9 -11 23 7 13 5 25 -7
43 -12 19 -12 23 -2 16 11 -6 13 -4 5 11 -5 10 -9 49 -10 86 -1 37 -5 72 -9
78 -4 6 -4 18 -1 26 3 9 1 24 -4 35 -8 15 -7 19 4 19 12 0 14 5 6 24 -5 13 -6
27 -3 30 4 3 7 43 9 88 1 46 5 92 7 103 6 24 23 199 26 268 1 11 5 15 13 11 8
-5 9 -2 5 10 -4 10 -3 26 3 36 5 9 12 46 15 81 4 34 9 68 13 73 4 6 7 13 8 16
0 3 4 13 8 23 5 9 6 32 4 49 -4 22 1 38 13 51 10 11 16 24 13 29 -5 7 6 54 23
98 4 8 5 19 4 24 -1 5 1 16 5 25 9 20 9 20 19 56 4 17 12 36 18 43 5 6 6 12 2
12 -3 0 2 15 13 33 11 17 23 48 27 67 4 19 11 41 15 50 5 8 14 30 20 48 7 17
17 32 22 32 5 0 7 4 3 10 -3 5 5 27 19 49 14 21 22 42 19 45 -7 6 34 86 48 96
4 3 38 55 74 115 36 61 72 115 79 120 6 6 22 26 33 45 12 19 34 47 48 62 14
15 25 29 25 32 0 2 26 31 58 64 31 32 94 98 139 145 46 48 87 87 92 87 54 0
112 25 161 70 30 28 63 53 72 56 9 3 19 13 22 22 3 10 20 26 37 36 17 10 58
44 92 77 34 32 69 64 77 71 9 8 66 19 135 26 65 7 124 16 129 21 6 5 19 7 29
6 9 -2 17 1 17 5 0 5 8 9 18 9 9 -1 46 7 82 16 36 10 71 17 78 18 6 0 12 4 12
9 0 4 14 8 30 8 17 0 30 5 30 11 0 6 6 9 14 6 18 -7 136 30 158 49 9 9 22 13
27 9 6 -3 11 -2 11 4 0 6 6 8 14 5 7 -3 42 4 77 15 35 11 78 22 94 25 40 7
115 27 140 37 11 4 33 8 49 7 15 0 31 4 35 9 5 9 62 20 141 28 8 1 23 5 34 10
11 5 26 4 37 -3 15 -9 26 -9 51 2 18 7 37 10 42 5 5 -4 17 -3 27 4z"/>
<path d="M16040 9125 c-57 -18 -82 -56 -82 -127 1 -75 19 -134 58 -187 2 -2
18 -5 36 -7 18 -2 39 -6 45 -9 23 -8 95 39 129 86 31 42 34 53 34 112 0 61 -2
67 -29 86 -16 12 -37 21 -47 21 -9 0 -25 6 -33 14 -25 23 -62 26 -111 11z"/>
<path d="M18383 9050 c-3 -11 -11 -20 -18 -20 -14 0 -35 -50 -35 -81 0 -10 -6
-38 -13 -61 -8 -24 -20 -72 -26 -108 -7 -36 -15 -74 -17 -85 -2 -11 -6 -39 -8
-62 -3 -23 -9 -50 -14 -60 -5 -10 -13 -45 -17 -78 -3 -32 -10 -66 -14 -75 -5
-8 -12 -37 -16 -65 -4 -27 -13 -62 -21 -76 -18 -36 -20 -79 -6 -106 7 -12 12
-26 11 -30 -8 -49 25 -82 80 -79 22 1 43 5 47 8 3 4 11 5 17 3 7 -3 30 8 52
23 37 26 41 33 53 97 6 39 14 99 17 134 2 34 9 69 15 76 5 7 8 31 5 55 -3 24
0 59 6 78 6 20 13 63 15 96 2 34 7 113 12 176 5 63 8 126 7 140 -4 48 -28 82
-73 101 -54 23 -53 23 -59 -1z"/>
<path d="M17622 8919 c-18 -7 -43 -70 -48 -119 -2 -14 -6 -43 -10 -65 -3 -22
-7 -49 -8 -60 0 -11 -4 -25 -8 -30 -6 -10 -29 -121 -33 -160 -1 -11 -8 -40
-14 -64 -7 -24 -10 -61 -7 -82 3 -22 1 -39 -4 -39 -6 0 -10 -15 -10 -34 0 -19
-4 -37 -9 -41 -6 -3 -10 -13 -11 -23 -3 -45 -10 -120 -15 -148 -2 -17 0 -55 4
-84 7 -46 15 -59 52 -92 24 -20 49 -38 56 -38 6 0 18 -7 27 -15 8 -8 32 -16
53 -18 21 -1 43 -5 48 -8 6 -3 24 -4 40 -2 17 2 49 5 73 6 36 2 47 8 70 36 14
19 27 48 28 64 2 17 5 41 9 54 4 17 1 23 -11 23 -13 0 -14 3 -5 13 18 23 -21
50 -63 45 -20 -2 -37 1 -39 6 -2 5 -27 10 -56 9 l-53 -1 5 47 c8 68 15 112 23
146 4 17 8 56 8 87 l0 57 31 -6 c16 -3 45 -12 64 -19 35 -15 106 -9 126 9 7 6
8 31 5 64 -6 54 -27 82 -61 83 -10 0 -19 12 -22 29 -5 22 -14 32 -42 41 -19 6
-39 19 -44 28 -5 9 -6 66 -4 125 5 103 4 110 -20 146 -23 35 -30 38 -66 37
-23 0 -49 -4 -59 -7z"/>
<path d="M16690 8653 c-39 -16 -51 -46 -45 -118 15 -192 16 -256 5 -316 -19
-103 -21 -306 -4 -324 8 -7 13 -20 12 -27 -2 -7 3 -12 10 -10 6 1 12 -2 12 -8
0 -5 22 -7 53 -3 36 4 57 12 69 26 18 23 36 131 40 240 1 37 6 67 10 67 5 0 8
12 8 27 0 25 10 50 67 170 9 18 29 37 46 44 28 12 32 11 53 -14 23 -26 23 -31
21 -220 -2 -122 -7 -200 -14 -213 -23 -41 2 -153 34 -155 106 -7 126 -4 145
21 11 15 21 51 25 90 9 95 9 490 0 525 -4 17 -9 35 -10 40 -5 23 -69 105 -82
105 -8 0 -36 7 -62 16 -71 24 -175 20 -221 -10 -21 -13 -43 -31 -51 -40 -22
-27 -38 -18 -45 23 -4 25 -15 46 -28 55 -24 17 -25 17 -48 9z"/>
<path d="M16103 8600 c-34 -14 -43 -42 -38 -121 10 -151 34 -262 77 -348 18
-37 33 -86 35 -114 4 -55 27 -97 52 -97 10 0 28 -11 41 -25 12 -13 27 -22 31
-19 5 3 9 0 9 -6 0 -6 11 -8 28 -5 15 4 37 8 49 11 40 8 48 118 13 190 -13 26
-25 70 -26 98 -11 165 -38 333 -58 351 -24 21 -134 78 -171 88 -11 3 -30 2
-42 -3z"/>
<path d="M15741 8474 c-11 -14 -21 -28 -23 -32 -2 -4 -46 -5 -98 -2 -52 3
-122 1 -155 -3 -33 -5 -75 -11 -94 -14 -89 -12 -138 -139 -143 -368 0 -38 15
-122 27 -144 14 -28 65 -78 110 -107 34 -23 201 -31 224 -11 9 7 32 21 52 30
36 17 69 54 69 79 1 21 40 62 49 52 5 -5 21 -40 36 -78 15 -38 33 -76 41 -83
7 -8 17 -21 22 -29 13 -23 91 -28 114 -7 19 17 23 89 6 99 -4 3 -8 29 -8 57 0
31 -6 62 -16 75 -8 12 -12 22 -8 22 3 0 1 6 -5 14 -6 7 -15 33 -20 57 -5 24
-21 82 -36 129 -15 47 -30 105 -35 130 -8 46 -40 133 -53 146 -16 16 -38 11
-56 -12z m-110 -226 c1 -13 0 -27 -1 -33 -1 -5 -4 -22 -6 -36 -2 -14 -20 -62
-41 -105 -39 -81 -52 -91 -99 -80 -32 8 -44 43 -50 131 -3 57 0 77 16 102 16
27 26 32 67 36 114 9 113 9 114 -15z"/>
<path d="M14650 8310 c-14 -5 -52 -13 -85 -18 -121 -20 -200 -68 -187 -115 4
-14 2 -18 -7 -13 -11 7 -11 -20 4 -124 5 -35 93 -281 107 -297 10 -13 14 -29
22 -104 5 -43 24 -77 47 -84 14 -5 57 -94 50 -103 -1 -1 7 -19 18 -40 10 -20
29 -71 41 -112 13 -41 31 -101 41 -132 11 -32 19 -68 19 -80 0 -13 7 -33 15
-44 8 -12 19 -48 24 -82 5 -34 14 -69 20 -80 9 -17 19 -69 25 -129 1 -12 11
-40 21 -62 16 -36 22 -41 52 -41 18 0 33 5 33 10 0 6 28 10 64 10 56 0 67 3
80 22 18 26 21 84 5 125 -6 15 -12 51 -15 78 -6 79 -12 114 -20 126 -4 7 -9
28 -11 48 -2 20 -8 40 -14 46 -5 5 -9 18 -9 30 0 11 -6 31 -13 45 -8 14 -33
61 -56 105 -32 61 -91 222 -91 251 0 2 8 4 17 4 47 0 147 44 167 74 7 12 28
37 45 56 17 19 31 45 31 58 0 12 5 22 11 22 7 0 8 11 4 29 -3 17 -2 39 4 49
17 32 -6 189 -34 232 -13 19 -29 47 -36 63 -7 15 -15 27 -20 27 -4 0 -32 25
-62 55 -30 30 -63 55 -74 55 -10 0 -27 6 -38 14 -11 7 -45 16 -75 19 -30 3
-64 8 -75 10 -11 3 -31 2 -45 -3z m121 -232 c20 -8 44 -20 54 -28 17 -14 59
-90 50 -90 -3 0 1 -13 10 -30 20 -38 19 -74 -2 -108 -22 -34 -34 -43 -54 -39
-9 1 -22 -3 -30 -10 -8 -6 -34 -14 -59 -16 -63 -6 -90 23 -114 128 -10 44 -23
86 -29 93 -6 7 -12 26 -14 42 -1 16 -4 35 -5 41 -8 37 112 47 193 17z"/>
<path d="M18225 7891 c-124 -45 -114 -37 -110 -92 3 -41 11 -57 47 -99 44 -52
50 -55 130 -64 57 -7 88 14 107 72 13 40 9 133 -7 159 -8 12 -85 43 -106 43
-6 -1 -33 -9 -61 -19z"/>
<path d="M19960 10983 c-71 -27 -175 -86 -223 -125 -32 -26 -64 -48 -72 -48
-8 0 -29 -12 -47 -28 -18 -15 -46 -34 -63 -42 -16 -8 -43 -24 -60 -36 -16 -11
-41 -25 -55 -29 -14 -4 -39 -18 -56 -31 -30 -23 -30 -25 -23 -84 4 -34 14 -69
23 -79 21 -24 118 -27 178 -6 23 8 53 15 64 15 12 0 27 7 34 15 7 8 24 21 39
28 52 27 96 52 101 57 3 3 14 11 25 18 29 18 77 50 99 64 10 7 34 28 54 46 20
17 42 32 49 32 18 0 66 64 69 94 1 14 5 35 9 46 4 13 -1 25 -14 37 -12 10 -21
23 -21 30 0 7 -3 13 -7 14 -18 2 -49 8 -68 13 -11 3 -27 2 -35 -1z"/>
<path d="M11845 9367 c-26 -33 -37 -63 -40 -104 -1 -24 0 -41 3 -38 3 2 10 -5
16 -18 8 -14 28 -26 56 -34 60 -16 132 -42 145 -53 6 -5 22 -11 35 -13 30 -5
52 -13 105 -37 22 -10 54 -22 70 -26 17 -4 35 -10 40 -15 6 -4 41 -19 79 -33
38 -15 75 -31 82 -37 20 -17 124 -23 171 -10 39 11 41 13 41 49 0 20 -4 45 -9
54 -5 10 -5 18 1 20 6 2 4 14 -5 31 -8 15 -12 34 -9 42 11 28 -41 60 -127 79
-46 10 -95 24 -109 31 -14 7 -43 15 -65 19 -22 4 -53 11 -70 16 -16 5 -66 19
-110 31 -44 12 -87 24 -95 27 -81 30 -189 40 -205 19z"/>
<path d="M20095 8880 c-11 -5 -31 -11 -45 -14 -14 -4 -35 -22 -47 -42 -35 -54
-28 -110 20 -163 26 -30 29 -31 117 -31 49 0 99 -4 112 -9 13 -5 57 -14 98
-21 41 -6 108 -18 147 -27 42 -9 80 -12 90 -7 10 4 23 9 28 10 34 7 55 18 55
30 0 7 10 20 23 29 20 13 23 22 21 71 -2 65 -31 114 -67 114 -13 0 -27 4 -32
9 -19 16 -101 32 -155 29 -55 -2 -144 6 -234 23 -59 11 -104 11 -131 -1z"/>
<path d="M12390 7176 c-28 -15 -160 -37 -205 -35 -105 5 -295 -36 -280 -61 3
-6 -3 -10 -14 -10 -12 0 -21 -4 -21 -10 0 -5 5 -10 10 -10 6 0 10 -22 10 -48
0 -35 6 -54 20 -70 22 -24 67 -28 230 -22 41 1 111 4 155 5 44 2 104 6 133 9
64 8 162 49 162 69 0 8 12 27 26 42 37 40 45 68 31 107 -6 18 -12 35 -14 36
-1 2 -50 6 -110 8 -76 2 -115 -1 -133 -10z"/>
<path d="M19928 7123 c-38 -6 -52 -28 -52 -83 0 -27 -3 -47 -7 -44 -4 2 -5 -5
-2 -16 6 -21 57 -70 74 -70 6 0 22 -11 36 -24 14 -13 37 -30 52 -37 14 -7 40
-22 56 -34 17 -11 55 -32 85 -45 30 -14 57 -28 60 -32 3 -4 24 -15 45 -24 22
-9 47 -22 55 -29 48 -40 137 -31 174 18 16 21 20 43 21 97 0 65 -2 71 -33 101
-36 36 -46 42 -137 89 -33 17 -73 39 -90 48 -72 38 -104 52 -118 52 -8 0 -43
9 -77 20 -61 19 -85 22 -142 13z"/>
<path d="M13341 5751 c-7 -5 -35 -7 -62 -6 -33 2 -52 -2 -61 -12 -14 -17 -167
-118 -204 -135 -13 -6 -24 -15 -24 -19 0 -4 -9 -10 -19 -14 -11 -3 -37 -20
-58 -36 -21 -17 -45 -35 -53 -39 -9 -5 -15 -26 -16 -60 -1 -28 -5 -54 -8 -57
-11 -11 -6 -21 26 -53 22 -23 37 -30 52 -26 12 4 41 11 66 16 64 12 90 24 130
59 19 17 43 34 53 37 9 3 17 9 17 14 0 5 14 17 30 25 37 19 63 40 102 81 15
17 45 37 66 43 20 7 51 24 67 37 26 20 30 31 30 71 1 35 -4 52 -17 61 -22 16
-99 24 -117 13z"/>
<path d="M19160 5700 c0 -5 -13 -10 -30 -10 -19 0 -33 -7 -40 -19 -13 -25 -13
-34 1 -25 8 4 8 1 1 -12 -5 -11 -8 -36 -7 -57 4 -41 41 -127 56 -127 5 0 9 -6
9 -13 0 -16 64 -104 120 -166 22 -24 40 -48 40 -53 0 -4 6 -8 14 -8 8 0 21 -6
28 -14 36 -36 119 -25 133 17 19 57 -1 128 -57 199 -16 21 -40 58 -53 82 -13
25 -32 54 -42 65 -10 11 -29 34 -43 52 -47 62 -88 99 -109 99 -12 0 -21 -4
-21 -10z"/>
<path d="M18133 4930 c-6 -16 -18 -30 -27 -30 -8 0 -21 -10 -27 -22 -15 -28
-12 -127 3 -146 7 -8 17 -22 23 -32 28 -50 109 -160 116 -160 5 0 9 -6 9 -14
0 -24 84 -101 100 -91 6 3 10 3 10 -2 0 -4 20 -9 45 -10 37 -2 48 2 60 21 18
26 21 75 10 125 -7 32 -98 176 -166 262 -16 20 -29 41 -29 47 0 18 -74 82 -95
82 -14 0 -24 -10 -32 -30z"/>
<path d="M14823 4662 c-36 -11 -54 -30 -117 -127 -21 -33 -51 -78 -65 -100
-15 -22 -33 -55 -40 -72 -7 -18 -17 -33 -21 -33 -4 0 -18 -27 -30 -60 -26 -69
-23 -147 7 -211 16 -33 22 -37 67 -43 62 -7 81 4 106 59 11 24 29 49 39 54 20
11 28 27 41 76 14 51 99 248 116 266 19 21 28 98 15 131 -5 12 -10 28 -12 33
-9 32 -51 43 -106 27z"/>
<path d="M16810 4351 c-14 -4 -34 -21 -45 -38 -14 -22 -27 -30 -44 -29 -33 1
-53 -37 -46 -89 3 -22 7 -124 9 -228 2 -106 8 -192 14 -200 6 -7 7 -29 3 -52
-10 -57 7 -152 31 -180 16 -19 27 -22 61 -18 43 6 70 20 62 33 -6 10 24 50 38
50 22 0 37 80 25 128 -8 33 -8 46 3 58 10 12 13 44 11 118 -2 116 -10 224 -16
234 -2 4 -7 47 -11 97 -4 49 -11 98 -16 107 -10 18 -35 21 -79 9z"/>
</g>
</svg>
