<?xml version="1.0" standalone="no"?>
<!DOCTYPE svg PUBLIC "-//W3C//DTD SVG 20010904//EN"
 "http://www.w3.org/TR/2001/REC-SVG-20010904/DTD/svg10.dtd">
<svg version="1.0" xmlns="http://www.w3.org/2000/svg"
 width="2048" height="2048" viewBox="0 0 2048 2048"
 preserveAspectRatio="xMidYMid meet">

<g transform="translate(0.000000,2048.000000) scale(0.100000,-0.100000)"
fill="#000000" stroke="none">
<path d="M5093 11753 c-7 -2 -9 -11 -6 -19 4 -10 -3 -14 -25 -14 -16 0 -45 -7
-64 -15 -32 -13 -50 -30 -117 -114 -22 -27 -191 -121 -218 -121 -6 0 -34 -16
-63 -35 -29 -19 -57 -35 -64 -35 -6 0 -20 -14 -29 -30 -10 -17 -32 -37 -49
-46 -18 -9 -55 -41 -83 -70 -28 -30 -56 -54 -61 -54 -6 0 -30 -18 -54 -39 -41
-36 -251 -151 -276 -151 -7 0 -17 -7 -24 -15 -7 -8 -20 -15 -30 -15 -10 0 -41
-16 -70 -35 -29 -19 -54 -35 -56 -35 -2 0 -34 -19 -71 -42 -38 -22 -93 -55
-123 -71 -77 -42 -160 -97 -160 -107 0 -4 -8 -10 -17 -14 -10 -3 -47 -28 -83
-55 -36 -28 -96 -71 -135 -98 -38 -26 -80 -56 -91 -66 -25 -21 -27 -22 -250
-137 -220 -113 -214 -110 -221 -126 -3 -8 -11 -14 -18 -14 -6 0 -39 -28 -72
-62 -66 -70 -217 -208 -242 -222 -14 -9 -95 -69 -128 -96 -7 -6 -17 -10 -22
-10 -6 0 -33 -13 -61 -30 -28 -16 -54 -30 -58 -30 -9 0 -115 -53 -122 -61 -3
-4 -28 -19 -57 -33 -28 -15 -54 -33 -57 -41 -2 -7 -20 -21 -39 -30 -18 -8 -53
-34 -76 -55 -24 -22 -49 -40 -56 -40 -8 0 -33 -24 -57 -53 -24 -30 -50 -51
-57 -49 -7 2 -24 -7 -37 -21 -29 -32 -84 -74 -127 -98 -56 -32 -190 -96 -246
-119 -30 -12 -61 -28 -69 -36 -8 -8 -28 -22 -45 -31 -49 -25 -123 -89 -161
-141 -19 -26 -55 -69 -80 -97 -25 -27 -46 -53 -46 -57 0 -3 -12 -20 -26 -37
-37 -45 -171 -293 -189 -351 -4 -14 -15 -36 -25 -50 -15 -22 -43 -105 -79
-240 -7 -25 -18 -77 -25 -117 -7 -40 -18 -79 -25 -87 -7 -8 -16 -36 -21 -63
-5 -26 -15 -77 -23 -113 -8 -36 -18 -101 -22 -145 -4 -44 -11 -88 -16 -97 -5
-10 -11 -30 -13 -45 -14 -96 -34 -165 -68 -228 -6 -11 -19 -65 -29 -120 -10
-55 -25 -140 -34 -190 -9 -49 -28 -128 -43 -175 -21 -69 -26 -105 -27 -191 0
-74 4 -111 13 -122 12 -14 7 -34 -27 -137 -59 -174 -54 -278 7 -156 27 54 82
238 82 275 0 18 4 22 18 16 9 -5 44 -18 77 -30 55 -20 60 -24 58 -50 -2 -28
-47 -103 -70 -118 -15 -9 -17 -33 -4 -41 5 -3 23 0 41 8 33 13 60 60 75 125 7
34 12 35 80 6 17 -7 63 -25 102 -40 82 -32 87 -42 54 -111 -27 -55 -36 -110
-20 -120 19 -11 62 47 83 111 9 30 20 56 24 59 9 5 103 -19 131 -34 12 -6 25
-9 30 -6 5 3 23 -2 41 -10 25 -13 30 -21 25 -38 -18 -57 -21 -83 -12 -103 7
-16 6 -26 -7 -38 -18 -18 -20 -43 -7 -64 12 -19 34 -3 28 20 -3 10 3 29 13 42
10 13 27 50 38 83 18 55 21 59 48 58 49 -3 116 -13 121 -18 3 -3 -8 -22 -24
-43 -32 -41 -73 -124 -73 -147 0 -8 -5 -18 -10 -21 -13 -8 -13 -52 0 -60 15
-9 70 37 77 65 4 18 59 170 68 187 0 1 29 -5 63 -15 69 -18 68 -17 32 -97 -10
-22 -21 -53 -25 -70 -3 -16 -24 -68 -46 -114 -51 -105 -44 -137 21 -91 15 11
36 39 45 62 33 83 85 239 85 257 0 17 4 18 41 10 63 -15 82 -27 76 -52 -12
-53 -62 -175 -82 -202 -12 -16 -34 -54 -49 -84 -21 -42 -24 -56 -14 -62 9 -6
30 10 66 48 71 76 83 99 106 213 12 58 19 70 42 70 14 0 27 -7 30 -15 4 -8 11
-15 17 -15 6 0 45 -23 87 -52 l76 -52 -42 -85 c-24 -47 -54 -99 -68 -115 -28
-32 -29 -35 -18 -52 10 -16 68 -6 85 15 24 27 63 103 81 158 17 51 17 51 44
38 62 -32 246 -105 263 -105 11 0 19 -4 19 -10 0 -5 5 -10 11 -10 7 0 43 -9
81 -21 l69 -20 -27 -37 c-36 -47 -36 -47 -87 -112 -51 -64 -93 -137 -85 -146
12 -11 84 35 123 78 22 23 60 76 85 115 40 65 48 73 75 71 31 -1 184 -46 198
-58 4 -4 -4 -27 -18 -51 -30 -53 -32 -85 -6 -99 16 -8 25 -4 49 20 17 16 33
42 37 57 13 57 25 64 91 48 32 -8 69 -14 81 -15 12 0 34 -5 49 -10 25 -10 26
-12 10 -29 -9 -9 -16 -26 -16 -37 0 -17 -37 -82 -83 -146 -17 -24 -14 -58 4
-58 15 0 69 42 69 53 0 6 11 33 24 61 13 28 27 69 30 90 8 59 15 62 103 47
126 -20 124 -20 117 -50 -3 -14 -12 -41 -20 -58 -8 -18 -21 -49 -29 -68 -8
-19 -21 -50 -29 -68 -28 -59 -35 -86 -26 -92 11 -7 50 34 50 52 0 7 4 13 10
13 14 0 58 72 65 107 4 15 11 37 15 48 5 11 11 34 12 50 3 32 4 32 83 19 17
-2 40 -5 53 -5 13 -1 26 -7 28 -14 5 -12 -14 -117 -35 -200 -6 -22 -13 -66
-17 -98 l-6 -58 38 3 c31 2 42 9 58 37 10 18 23 50 27 70 4 20 15 70 25 111 9
41 17 86 17 98 1 21 4 23 32 17 16 -4 50 -11 75 -15 76 -13 174 -32 187 -36 9
-2 2 -25 -22 -73 -31 -62 -44 -111 -30 -111 21 0 72 54 96 103 16 31 34 57 39
57 6 0 45 -10 88 -21 127 -35 146 -40 170 -46 27 -6 28 -28 4 -68 -10 -16 -26
-52 -36 -78 -12 -31 -27 -52 -43 -60 -18 -8 -23 -17 -21 -36 3 -23 8 -26 48
-28 30 -1 51 4 63 15 22 19 57 93 57 119 0 10 8 37 17 59 20 49 29 50 163 9
25 -8 75 -22 113 -31 37 -9 67 -18 67 -20 0 -2 -14 -26 -30 -54 -43 -73 -58
-132 -41 -164 10 -18 11 -32 3 -55 -8 -21 -8 -31 -1 -31 6 0 13 9 16 20 3 11
10 20 17 20 32 0 136 150 136 197 1 42 13 46 86 25 38 -11 92 -23 119 -27 91
-12 96 -14 83 -38 -6 -12 -24 -35 -41 -51 -16 -16 -40 -46 -53 -65 -13 -20
-35 -52 -48 -71 -34 -49 -34 -65 2 -46 43 22 125 105 171 174 24 34 47 62 52
62 19 0 261 -58 322 -77 26 -8 47 -18 45 -22 -28 -62 -54 -99 -76 -108 -15 -7
-49 -22 -77 -33 -54 -23 -85 -50 -85 -75 0 -18 -1 -18 73 -5 72 11 159 52 179
82 8 13 21 41 29 63 23 69 25 70 120 40 46 -14 92 -30 101 -35 10 -6 27 -10
37 -10 35 0 32 -18 -11 -72 -67 -82 -125 -178 -108 -178 4 0 10 7 14 15 3 8 9
14 13 13 12 -4 64 32 94 63 15 16 37 51 50 78 12 28 28 51 35 51 7 0 67 -26
134 -57 96 -46 120 -61 120 -77 0 -12 -9 -27 -19 -33 -11 -7 -25 -28 -32 -48
-7 -19 -17 -35 -21 -35 -4 0 -8 -7 -8 -14 0 -8 -11 -36 -25 -62 -14 -26 -25
-61 -25 -78 l1 -31 27 31 c50 59 63 79 108 173 l45 93 20 -21 c11 -11 28 -21
38 -21 10 0 29 -8 42 -18 32 -23 57 -38 95 -57 l32 -16 -24 -49 c-13 -26 -34
-60 -47 -74 -33 -35 -75 -97 -79 -116 -2 -8 -7 -18 -13 -22 -5 -4 -6 -10 -2
-14 4 -4 42 19 84 52 60 45 85 73 108 116 l31 57 62 -30 c34 -17 62 -35 62
-40 0 -5 11 -9 24 -9 13 0 29 -6 35 -14 9 -11 1 -29 -39 -89 -28 -41 -58 -78
-65 -81 -18 -7 -20 -47 -3 -64 19 -19 65 -14 88 11 12 12 35 47 53 77 17 30
39 67 50 81 l18 26 67 -24 c37 -14 83 -29 102 -35 114 -34 122 -45 75 -98 -13
-14 -28 -42 -35 -63 -7 -22 -21 -42 -33 -47 -34 -14 -69 -48 -62 -60 10 -17
68 -11 103 10 18 11 40 37 48 57 38 87 67 143 73 140 3 -2 17 -8 31 -13 64
-26 234 -108 249 -120 1 -1 -8 -18 -22 -36 -13 -18 -29 -47 -35 -64 -13 -41
-40 -72 -77 -91 -70 -36 -89 -80 -45 -103 22 -12 103 2 125 20 28 23 82 104
94 140 6 19 21 47 34 63 l22 28 115 -58 c142 -72 144 -78 40 -150 -41 -29 -84
-57 -95 -62 -29 -13 -112 -90 -98 -91 6 0 14 4 18 10 3 5 11 7 18 4 25 -9 236
119 237 145 1 3 11 19 24 35 l24 29 88 -37 c49 -21 105 -45 125 -54 l37 -17
-20 -30 c-11 -16 -53 -61 -92 -98 -67 -65 -70 -69 -52 -83 11 -7 30 -11 43 -9
12 3 33 7 46 10 31 6 110 87 133 136 11 21 22 39 26 39 5 0 36 -13 70 -28 35
-16 76 -34 91 -41 22 -9 27 -16 22 -29 -4 -9 -14 -34 -22 -55 -7 -21 -29 -63
-48 -93 -79 -124 -104 -194 -67 -194 22 0 74 37 103 74 29 36 83 151 99 209 9
35 16 45 25 37 6 -5 31 -17 55 -25 24 -9 51 -21 60 -28 8 -8 34 -20 58 -27 24
-7 45 -16 47 -20 9 -15 -47 -109 -99 -168 -31 -35 -56 -70 -56 -78 0 -8 -4
-14 -10 -14 -5 0 -10 -8 -9 -17 0 -11 3 -13 6 -6 2 7 22 17 43 23 69 19 160
124 174 204 7 38 9 39 39 16 14 -11 29 -20 35 -20 5 0 40 -16 78 -35 37 -19
73 -35 79 -35 6 0 21 -7 33 -16 l22 -15 -32 -60 c-28 -50 -41 -63 -80 -80 -26
-12 -49 -28 -52 -36 -9 -23 12 -43 46 -43 39 0 117 37 125 58 3 9 14 35 23 57
10 22 21 50 25 63 7 25 16 24 94 -9 24 -10 50 -19 59 -19 8 0 46 -11 84 -25
38 -14 79 -25 92 -25 12 0 25 -3 29 -6 11 -11 -16 -59 -57 -98 -38 -37 -39
-39 -21 -52 25 -18 34 -18 72 6 22 13 37 34 50 70 17 49 19 51 48 45 82 -19
175 -36 219 -41 79 -8 84 -16 42 -55 -121 -111 -180 -179 -155 -179 35 0 214
129 238 172 9 16 25 28 36 28 28 0 177 -36 253 -61 63 -21 63 -21 56 -53 -3
-17 -12 -38 -19 -46 -7 -8 -21 -35 -31 -60 -10 -25 -34 -65 -54 -90 -52 -65
-63 -95 -48 -128 29 -59 86 -31 128 64 16 35 33 64 38 64 6 0 13 12 17 28 3
15 17 50 30 77 13 28 26 58 29 68 4 13 10 15 23 7 10 -5 58 -25 106 -43 49
-19 97 -41 107 -50 10 -8 28 -20 39 -27 25 -13 27 -33 5 -51 -8 -7 -31 -37
-51 -66 -19 -29 -43 -58 -53 -63 -17 -9 -47 -67 -38 -75 2 -2 26 3 54 12 39
12 55 24 77 58 15 23 27 47 27 51 0 5 11 26 24 46 l23 38 39 -30 c21 -16 43
-30 49 -30 5 0 25 -15 45 -33 19 -18 55 -42 80 -52 25 -10 46 -20 48 -21 4 -2
-33 -67 -66 -116 -23 -35 -87 -78 -116 -78 -19 0 -49 -37 -41 -51 5 -8 26 -9
69 -4 95 10 138 52 177 170 l17 50 48 -3 c27 -1 74 -11 104 -21 51 -17 55 -20
52 -47 -2 -16 -26 -75 -53 -132 -36 -75 -56 -105 -74 -112 -49 -18 -22 -100
33 -100 32 0 96 105 132 218 11 36 17 42 34 38 15 -4 36 8 75 44 29 28 57 50
62 50 5 0 9 5 9 10 0 6 7 10 15 10 38 0 245 243 245 288 0 6 19 31 43 55 133
138 195 222 268 362 17 33 35 62 38 65 4 3 18 23 31 45 28 48 60 87 141 176
33 37 72 85 87 108 15 23 34 44 44 47 9 3 32 31 49 62 18 31 35 59 39 62 9 8
65 100 88 147 33 65 45 86 68 113 12 14 31 42 42 64 12 21 36 53 54 72 18 18
49 52 68 75 19 23 46 54 60 68 14 14 32 35 40 47 22 31 82 118 145 209 30 44
60 87 68 95 7 8 26 35 42 60 39 59 160 209 235 288 32 35 66 79 75 98 10 21
23 34 35 34 11 0 27 12 37 28 19 29 155 164 278 277 100 90 125 116 125 126 0
5 6 9 14 9 8 0 24 13 36 30 11 16 34 37 50 47 17 9 32 24 35 33 6 18 71 90 82
90 5 0 18 17 31 38 13 21 47 55 76 76 28 20 67 56 86 79 19 22 44 48 55 56 10
9 29 27 42 41 78 87 123 141 123 149 0 4 15 24 33 44 17 19 50 56 72 82 22 26
58 67 80 91 82 90 119 134 129 151 5 10 18 24 29 32 10 7 25 29 33 47 8 19 18
34 23 34 9 0 105 179 166 310 29 62 69 123 108 162 9 10 17 31 17 47 0 16 7
34 15 41 8 7 15 16 15 21 0 5 11 32 25 61 14 28 25 59 25 69 0 9 6 19 13 22
14 5 91 146 112 206 7 21 24 51 36 65 13 14 24 36 26 48 2 12 12 36 23 54 52
84 79 290 55 417 -26 133 -31 152 -68 224 -34 69 -37 81 -48 225 -14 190 -27
223 -106 272 -31 19 -70 38 -87 42 -17 3 -78 20 -136 36 -58 17 -121 33 -140
37 -19 4 -44 12 -55 18 -19 11 -108 38 -220 69 -27 8 -59 18 -70 23 -11 6 -60
22 -110 36 -80 24 -150 52 -290 115 -22 10 -60 26 -85 35 -25 10 -56 23 -70
30 -14 7 -59 22 -100 34 -41 13 -106 33 -144 47 -38 14 -71 22 -74 20 -2 -3
-14 1 -26 9 -11 8 -28 15 -37 15 -10 0 -41 12 -71 27 -55 28 -185 69 -323 104
-44 11 -100 26 -125 34 -25 9 -58 15 -73 15 -15 0 -44 7 -64 15 -19 8 -47 15
-62 15 -15 0 -31 4 -37 9 -5 4 -38 14 -74 21 -36 7 -135 28 -220 48 -85 19
-166 36 -180 39 -14 2 -34 9 -45 14 -11 5 -49 13 -84 19 -36 5 -69 14 -75 20
-5 5 -23 10 -39 10 -15 0 -36 4 -45 9 -10 5 -53 17 -97 26 -44 9 -87 18 -95
21 -8 2 -41 10 -72 18 -31 7 -61 16 -66 20 -5 3 -45 12 -88 20 -43 8 -107 22
-141 31 -34 8 -88 19 -120 24 -32 5 -84 16 -116 25 -31 9 -61 15 -65 14 -4 -1
-29 4 -57 10 -27 7 -84 17 -125 23 -41 5 -100 14 -130 19 -30 5 -98 15 -150
23 -178 28 -235 37 -265 42 -90 16 -260 48 -330 61 -44 9 -93 17 -110 19 -47
5 -204 34 -244 44 -20 6 -106 24 -191 41 -85 18 -181 41 -212 51 -31 11 -60
19 -65 18 -4 -1 -15 0 -23 3 -8 3 -35 10 -60 17 -25 6 -76 20 -115 31 -38 12
-88 23 -110 27 -22 3 -45 9 -50 14 -6 4 -31 11 -55 15 -25 4 -54 11 -65 17
-11 6 -36 14 -55 18 -19 4 -80 19 -135 34 -55 14 -118 30 -140 35 -22 5 -58
13 -80 19 -23 6 -72 15 -110 20 -39 5 -90 14 -115 20 -25 5 -85 17 -135 26
-49 9 -110 20 -135 25 -25 5 -67 12 -95 15 -27 4 -69 13 -91 21 -23 8 -46 14
-50 12 -5 -1 -31 3 -59 10 -117 31 -135 34 -150 28 -9 -3 -23 1 -31 9 -8 8
-31 17 -52 20 -79 14 -262 83 -375 142 -15 8 -31 12 -36 9 -5 -3 -14 1 -20 8
-7 8 -35 20 -64 27 -29 7 -67 21 -85 31 -19 10 -39 18 -45 17 -7 -1 -25 3 -42
10 -43 18 -101 39 -170 62 -33 11 -83 31 -111 44 -28 14 -58 25 -67 25 -9 0
-32 9 -52 20 -19 11 -35 18 -35 15 0 -3 -17 4 -38 15 -21 11 -69 27 -107 36
-39 9 -110 30 -160 45 -49 16 -95 29 -101 29 -20 0 -142 69 -176 100 -41 38
-164 97 -226 109 -71 14 -126 20 -139 14z m150 -132 c48 -12 101 -21 116 -21
16 0 35 -8 42 -17 10 -11 10 -14 2 -9 -8 4 -13 2 -13 -7 0 -7 6 -14 13 -14 6
0 50 -18 97 -40 47 -22 103 -46 125 -53 22 -6 53 -16 68 -20 16 -5 34 -7 41
-4 7 3 53 -7 102 -22 49 -14 103 -29 119 -33 17 -5 40 -13 52 -19 12 -7 33
-12 47 -12 14 0 28 -4 31 -10 3 -5 16 -10 28 -10 12 0 36 -9 52 -20 17 -11 39
-20 50 -20 12 0 25 -4 30 -8 6 -5 28 -16 50 -25 22 -9 73 -30 113 -46 40 -17
76 -30 80 -29 4 1 29 -8 55 -20 27 -12 53 -19 59 -16 5 4 23 -3 38 -15 16 -11
50 -26 77 -33 26 -7 56 -21 65 -30 10 -10 26 -18 37 -18 10 0 29 -8 42 -19 13
-10 41 -24 61 -30 21 -7 40 -16 43 -21 3 -5 14 -7 25 -5 10 2 24 -3 31 -11 6
-8 26 -14 43 -14 17 -1 49 -8 71 -16 22 -9 49 -16 60 -17 11 0 22 -4 25 -7 3
-4 34 -12 70 -19 64 -11 101 -19 190 -41 25 -6 70 -15 100 -21 30 -5 75 -14
100 -18 25 -5 115 -21 200 -36 85 -15 164 -31 175 -35 11 -5 31 -11 45 -13 27
-5 180 -40 270 -62 30 -7 80 -20 110 -29 30 -8 75 -21 100 -27 25 -6 54 -15
65 -19 21 -8 48 -16 195 -55 52 -15 104 -28 115 -30 11 -2 34 -8 50 -15 17 -6
53 -16 80 -22 82 -17 116 -25 200 -48 44 -12 103 -26 130 -31 28 -4 79 -15
115 -24 36 -8 128 -26 205 -40 77 -13 178 -31 225 -41 47 -9 110 -20 140 -25
30 -4 89 -15 130 -23 90 -17 160 -28 345 -56 77 -11 156 -25 175 -30 33 -8
113 -23 210 -41 25 -4 97 -20 160 -34 152 -34 201 -45 225 -49 11 -2 38 -9 60
-15 69 -18 208 -53 253 -62 24 -5 48 -12 54 -15 11 -7 148 -41 213 -53 23 -4
45 -10 51 -14 6 -3 24 -8 40 -11 97 -18 137 -27 167 -39 19 -8 63 -18 98 -22
35 -4 71 -11 80 -16 9 -4 41 -13 70 -18 30 -5 83 -17 119 -26 36 -8 90 -20
120 -25 30 -6 66 -15 80 -21 14 -6 48 -15 75 -19 78 -12 333 -88 374 -110 33
-19 94 -40 115 -40 12 0 27 -5 34 -12 6 -6 24 -13 39 -14 32 -4 203 -58 248
-79 17 -7 41 -17 55 -21 14 -4 67 -26 118 -50 51 -24 102 -44 112 -44 11 0 36
-11 56 -25 20 -14 45 -25 55 -25 10 0 33 -6 51 -14 18 -8 56 -21 83 -29 28 -9
73 -23 100 -32 52 -17 66 -21 260 -80 66 -20 134 -40 151 -45 17 -6 39 -10 50
-10 11 0 30 -7 42 -16 13 -9 29 -13 37 -10 18 6 124 -45 149 -73 12 -13 21
-45 27 -93 19 -178 32 -247 61 -313 30 -71 36 -91 58 -200 7 -33 16 -67 20
-75 4 -8 4 -24 -1 -35 -4 -11 -8 -51 -9 -90 -1 -73 -17 -152 -36 -176 -7 -8
-22 -34 -34 -59 -12 -25 -32 -58 -45 -75 -12 -16 -26 -41 -30 -55 -4 -14 -32
-62 -61 -106 -52 -79 -104 -181 -104 -204 0 -6 -11 -28 -25 -50 -14 -23 -28
-54 -32 -71 -3 -18 -15 -35 -29 -41 -12 -6 -25 -21 -28 -34 -4 -13 -13 -24
-21 -24 -30 0 -145 -201 -145 -253 0 -16 4 -26 10 -22 11 7 -4 -38 -19 -58
-91 -113 -141 -179 -141 -186 0 -4 -11 -13 -25 -19 -13 -6 -36 -28 -49 -49
-14 -21 -44 -53 -66 -72 -22 -19 -40 -39 -40 -46 0 -7 -9 -16 -19 -21 -11 -5
-47 -45 -81 -89 -83 -109 -143 -177 -220 -249 -71 -68 -193 -190 -345 -348
-108 -111 -222 -219 -242 -228 -19 -8 -228 -216 -298 -295 -33 -38 -90 -101
-126 -139 -37 -39 -74 -87 -84 -106 -10 -19 -35 -53 -56 -75 -69 -72 -99 -108
-99 -117 0 -5 -18 -31 -40 -57 -22 -26 -40 -52 -40 -59 0 -6 -19 -35 -42 -64
-24 -29 -49 -65 -56 -79 -21 -41 -144 -186 -259 -306 -13 -13 -30 -38 -39 -56
-10 -18 -29 -48 -44 -67 -15 -19 -33 -51 -40 -70 -8 -19 -22 -46 -32 -59 -10
-13 -18 -30 -18 -37 0 -16 -80 -134 -129 -190 -20 -22 -58 -66 -86 -98 -27
-32 -67 -77 -87 -100 -52 -57 -98 -117 -98 -127 0 -4 -13 -28 -30 -52 -16 -25
-40 -67 -53 -93 -53 -113 -103 -182 -253 -347 -25 -27 -51 -64 -59 -83 -20
-48 -96 -151 -147 -200 -60 -57 -85 -61 -156 -24 -31 16 -70 30 -87 30 -35 0
-222 57 -230 71 -4 5 -21 16 -40 23 -18 8 -51 30 -73 51 -104 93 -325 225
-378 225 -12 0 -27 7 -34 15 -7 8 -19 15 -26 15 -7 0 -33 8 -56 19 -24 10 -70
26 -103 36 -33 9 -76 23 -95 31 -19 8 -51 15 -70 16 -19 1 -39 5 -45 9 -5 4
-28 9 -50 12 -143 19 -367 63 -395 76 -8 5 -40 14 -70 21 -30 7 -71 18 -90 25
-19 7 -55 16 -79 20 -24 4 -75 20 -112 36 -37 16 -75 29 -83 29 -9 0 -16 4
-16 10 0 5 -19 15 -42 21 -24 7 -47 16 -53 21 -5 4 -15 8 -23 8 -7 0 -28 11
-45 24 -18 13 -43 27 -56 31 -14 4 -45 18 -69 31 -25 13 -52 24 -60 24 -9 0
-23 6 -31 13 -18 16 -118 57 -136 57 -7 0 -18 6 -24 14 -7 8 -24 17 -39 21
-15 3 -79 32 -142 62 -63 31 -128 62 -145 69 -16 6 -66 28 -110 47 -44 19 -98
41 -120 48 -22 7 -49 19 -60 26 -11 7 -26 13 -35 13 -8 0 -28 7 -45 16 -142
76 -483 244 -497 244 -9 0 -18 4 -20 9 -1 4 -41 22 -88 39 -129 46 -150 54
-217 79 -34 13 -67 23 -74 23 -34 0 -231 88 -285 128 -17 12 -38 22 -46 22 -8
0 -25 11 -38 25 -13 14 -29 25 -35 25 -7 0 -20 9 -30 20 -10 11 -23 20 -30 20
-6 0 -26 11 -45 25 -19 14 -40 25 -47 25 -7 0 -32 14 -56 31 -37 27 -178 99
-194 99 -3 0 -27 10 -52 21 -61 29 -78 35 -126 49 -22 7 -53 18 -70 26 -16 7
-64 23 -105 34 -41 12 -113 33 -160 47 -110 34 -263 70 -390 92 -67 12 -142
31 -167 43 -11 6 -27 8 -35 6 -7 -3 -53 6 -103 19 -49 14 -103 26 -120 28 -35
5 -179 43 -320 86 -55 17 -121 34 -147 39 -26 5 -55 13 -65 18 -10 5 -52 17
-93 27 -41 9 -104 25 -140 36 -36 10 -119 28 -185 40 -161 28 -304 55 -395 74
-41 8 -79 14 -85 13 -5 -1 -21 1 -35 5 -14 3 -101 17 -195 32 -226 34 -271 43
-395 77 -175 47 -184 50 -202 59 -10 5 -30 9 -46 9 -15 0 -32 4 -38 9 -5 5
-27 14 -49 20 -22 7 -49 16 -60 21 -11 5 -54 21 -95 36 -96 34 -229 99 -300
145 -91 59 -127 79 -142 79 -8 0 -23 9 -33 20 -10 11 -25 20 -33 20 -7 0 -28
7 -45 15 -53 24 -354 98 -452 111 -27 3 -70 12 -94 20 -24 8 -56 16 -70 18
-15 1 -36 8 -48 14 -12 7 -33 12 -48 12 -14 0 -28 7 -31 15 -4 9 -13 13 -24
10 -9 -3 -37 2 -61 11 -151 56 -237 86 -259 91 -33 8 -107 50 -150 84 -30 25
-34 34 -31 68 1 21 -2 42 -8 46 -13 8 -15 57 -2 71 15 16 43 146 87 409 8 50
23 113 33 140 34 92 55 180 52 218 -2 15 2 33 7 40 5 7 13 44 16 82 11 110 36
255 53 310 9 28 22 79 29 115 7 36 18 88 24 115 7 28 14 60 16 73 5 28 28 28
57 1 19 -18 46 -32 132 -69 11 -4 41 -18 66 -29 25 -12 49 -21 53 -21 4 0 32
-11 62 -25 30 -14 63 -25 72 -25 10 0 36 -9 57 -20 22 -11 72 -29 110 -40 39
-11 93 -26 120 -34 226 -65 241 -70 292 -92 17 -8 41 -14 53 -14 11 0 35 -7
53 -17 18 -9 41 -18 52 -19 11 -2 58 -17 105 -34 47 -17 109 -38 138 -46 30
-8 75 -23 100 -33 26 -11 72 -25 102 -32 30 -7 60 -16 66 -21 6 -4 40 -17 75
-28 35 -11 73 -24 84 -29 16 -7 72 -24 120 -37 6 -2 57 -19 115 -39 147 -50
187 -63 255 -79 299 -74 571 -152 659 -190 17 -7 51 -19 76 -27 25 -7 68 -23
95 -35 28 -12 66 -27 85 -34 19 -7 62 -25 95 -40 33 -15 96 -41 140 -59 94
-39 124 -52 186 -80 25 -12 54 -21 65 -21 11 0 24 -4 30 -8 12 -12 151 -62
170 -62 8 0 33 -9 57 -19 23 -11 74 -27 112 -36 39 -9 75 -21 82 -27 7 -5 29
-11 50 -12 21 -2 45 -5 53 -8 33 -12 129 -37 200 -54 41 -9 84 -20 95 -25 11
-4 40 -12 65 -18 152 -34 363 -103 432 -141 10 -6 24 -10 32 -10 8 0 27 -6 43
-14 27 -15 181 -88 375 -179 53 -26 109 -49 125 -53 15 -4 51 -17 78 -29 28
-12 83 -32 123 -46 41 -13 76 -27 79 -31 2 -5 14 -8 25 -8 12 0 35 -4 52 -9
90 -27 258 -83 306 -101 30 -12 74 -28 96 -35 23 -7 50 -18 60 -23 11 -6 63
-32 116 -57 53 -26 102 -53 109 -61 6 -8 20 -14 30 -14 10 0 21 -5 24 -11 4
-5 17 -15 28 -20 29 -13 56 -29 94 -56 17 -13 35 -23 41 -23 5 0 25 -12 45
-27 71 -56 238 -142 362 -188 90 -34 224 -87 280 -111 75 -33 234 -92 265 -99
19 -4 40 -11 45 -16 6 -4 29 -12 50 -18 22 -5 78 -23 125 -41 94 -35 310 -106
381 -125 26 -7 55 -18 65 -23 11 -5 33 -15 49 -22 33 -13 56 -23 163 -69 40
-17 81 -31 92 -31 11 0 20 -4 20 -9 0 -5 19 -12 42 -16 23 -4 49 -11 58 -16 8
-5 51 -18 95 -30 44 -11 103 -26 130 -34 183 -48 401 -63 475 -31 32 13 130
117 130 137 0 14 -49 0 -117 -33 -60 -30 -64 -30 -170 -25 -122 7 -213 23
-343 62 -30 9 -68 20 -85 25 -16 5 -61 18 -100 30 -38 12 -83 25 -100 29 -16
4 -53 20 -82 34 -29 15 -57 27 -64 27 -6 0 -43 15 -82 33 -40 18 -99 41 -132
51 -72 21 -74 22 -299 97 -99 32 -184 59 -190 59 -6 0 -33 12 -61 25 -27 14
-58 25 -68 25 -20 0 -176 53 -215 73 -15 8 -54 25 -87 37 -75 29 -145 58 -167
70 -10 6 -25 10 -34 10 -10 0 -40 11 -68 24 -139 65 -186 86 -191 86 -3 0 -34
20 -69 44 -35 24 -76 51 -92 60 -16 9 -41 24 -56 34 -122 79 -407 221 -515
257 -26 8 -57 19 -68 24 -11 5 -51 18 -90 31 -38 12 -86 28 -105 35 -19 7 -62
19 -95 26 -33 7 -72 18 -87 26 -15 7 -34 13 -43 13 -10 0 -31 6 -48 13 -18 8
-48 20 -67 27 -52 19 -121 45 -154 59 -65 26 -172 72 -186 80 -8 4 -33 17 -55
28 -22 12 -67 33 -100 47 -33 15 -77 35 -97 46 -20 11 -44 20 -52 20 -8 0 -27
6 -43 14 -64 32 -205 84 -283 105 -25 7 -67 19 -95 27 -27 8 -68 19 -90 24
-22 5 -85 20 -140 35 -55 15 -147 37 -205 51 -58 13 -113 28 -122 34 -10 5
-26 10 -35 10 -10 0 -38 7 -63 15 -162 54 -223 75 -285 99 -38 15 -81 29 -95
32 -14 3 -36 13 -50 22 -14 10 -45 24 -70 32 -25 8 -73 29 -108 46 -59 31
-105 50 -217 89 -27 10 -61 22 -75 28 -14 5 -35 14 -47 18 -13 5 -33 13 -45
19 -58 25 -229 83 -285 95 -35 8 -71 19 -80 25 -16 8 -55 20 -173 50 -19 5
-67 16 -107 24 -101 21 -293 78 -428 127 -27 10 -81 28 -120 39 -38 12 -92 29
-120 39 -42 16 -141 46 -220 68 -11 3 -29 12 -40 19 -11 8 -30 14 -42 14 -13
0 -31 4 -41 9 -9 6 -46 19 -82 30 -36 11 -78 24 -95 30 -71 24 -138 41 -143
36 -3 -3 -10 -1 -16 4 -34 28 -216 84 -406 126 -63 14 -128 32 -145 39 -51 24
-137 47 -150 42 -8 -3 -19 2 -25 10 -7 8 -21 14 -31 14 -10 0 -20 4 -24 9 -3
5 -28 17 -56 26 -28 10 -63 24 -78 31 -14 8 -32 14 -39 14 -19 0 -122 68 -122
80 0 5 4 10 9 10 5 0 13 10 16 23 4 12 17 36 30 52 22 29 65 116 65 131 0 21
85 175 119 217 22 26 49 67 61 92 12 25 31 53 43 62 12 10 35 36 51 57 45 60
105 115 151 138 22 11 54 30 70 43 17 12 48 28 70 35 22 7 47 18 55 25 20 16
79 49 170 98 41 22 98 61 125 86 28 26 69 60 93 75 23 16 42 35 42 42 0 8 6
14 13 14 6 0 35 18 62 39 42 33 91 64 230 148 11 7 36 20 55 30 19 9 42 22 50
29 8 6 35 19 60 28 25 10 47 21 50 25 3 4 28 18 55 31 56 26 142 90 225 166
30 29 83 76 116 105 34 30 67 64 74 77 8 12 21 22 30 22 9 0 25 10 36 21 10
12 60 41 109 66 50 24 94 48 99 54 6 5 17 9 26 9 8 0 32 9 53 20 20 11 52 28
70 38 55 30 203 130 222 152 10 11 23 20 30 20 6 0 44 25 83 55 40 30 75 55
78 55 3 0 27 18 53 40 26 22 51 40 57 40 5 0 20 9 34 20 14 11 31 20 38 20 7
0 31 12 55 27 23 15 66 40 96 55 30 15 64 37 76 48 12 11 25 20 29 20 29 0
340 157 365 184 14 14 30 26 37 26 6 0 49 36 95 80 45 44 86 80 91 80 5 0 27
17 51 38 47 42 63 52 127 83 25 12 77 37 117 57 72 34 133 85 186 155 45 59
100 65 260 28z"/>
<path d="M5235 11580 c3 -5 8 -10 11 -10 2 0 4 5 4 10 0 6 -5 10 -11 10 -5 0
-7 -4 -4 -10z"/>
<path d="M14800 8890 c0 -5 5 -10 10 -10 6 0 10 5 10 10 0 6 -4 10 -10 10 -5
0 -10 -4 -10 -10z"/>
<path d="M14720 8809 c0 -11 5 -17 10 -14 6 3 10 13 10 21 0 8 -4 14 -10 14
-5 0 -10 -9 -10 -21z"/>
<path d="M14640 8739 c0 -5 5 -7 10 -4 6 3 10 8 10 11 0 2 -4 4 -10 4 -5 0
-10 -5 -10 -11z"/>
<path d="M14590 8695 c-7 -8 -19 -15 -26 -15 -8 0 -14 -7 -14 -16 0 -10 7 -14
18 -12 9 2 16 10 14 17 -1 7 7 15 18 18 11 3 20 9 20 14 0 14 -16 11 -30 -6z"/>
<path d="M14493 8621 c-14 -23 -5 -35 14 -20 14 12 18 39 5 39 -4 0 -13 -9
-19 -19z"/>
<path d="M14422 8566 c-12 -14 -18 -27 -13 -30 12 -8 63 33 56 45 -9 14 -18
11 -43 -15z"/>
<path d="M14329 8502 c-64 -41 -146 -106 -207 -162 -23 -22 -45 -40 -50 -41
-4 0 -25 -22 -47 -49 -43 -52 -180 -205 -205 -228 -18 -17 -126 -100 -164
-127 -26 -18 -88 -66 -185 -143 -70 -55 -144 -128 -173 -171 -38 -54 -138
-155 -220 -223 -35 -28 -67 -56 -73 -63 -5 -6 -15 -14 -22 -16 -18 -6 -163
-148 -163 -160 0 -6 -13 -22 -29 -37 -16 -15 -46 -49 -66 -76 -31 -41 -93
-105 -137 -142 -7 -5 -46 -40 -87 -77 -41 -37 -80 -67 -87 -67 -36 0 -213
-128 -306 -220 -38 -37 -68 -71 -68 -75 0 -12 -95 -122 -156 -180 -73 -71
-102 -93 -145 -115 -21 -11 -50 -36 -65 -55 -14 -19 -32 -35 -39 -35 -19 0
-77 -84 -114 -165 -17 -38 -36 -77 -41 -85 -14 -23 -60 -118 -60 -125 0 -3
-15 -28 -33 -54 -30 -46 -78 -91 -142 -136 -35 -24 -129 -107 -133 -117 -2 -5
-10 -8 -17 -8 -8 0 -23 -12 -35 -27 -11 -16 -53 -51 -93 -78 -75 -53 -102 -94
-79 -117 10 -10 16 -10 30 -1 9 7 33 20 52 30 19 9 68 46 109 82 40 35 88 76
106 90 104 80 163 128 185 151 14 15 30 29 35 31 12 5 105 143 105 156 0 5 13
29 28 54 16 24 34 59 40 78 13 36 65 118 104 162 22 26 90 78 212 164 32 22
66 55 77 73 12 17 27 32 35 32 8 0 23 13 32 30 9 16 20 30 25 30 4 0 7 6 7 14
0 8 8 21 18 28 10 7 49 48 86 91 37 42 82 85 99 94 18 8 34 19 37 22 6 8 77
61 105 79 11 7 40 21 65 33 25 11 64 43 88 70 24 27 50 49 58 49 8 0 17 7 20
15 4 8 12 15 20 15 7 0 21 11 31 26 10 14 29 37 43 52 14 15 41 47 60 72 19
25 40 50 46 55 6 6 22 26 34 45 13 19 27 37 30 40 3 3 10 14 16 25 6 11 20 22
30 24 24 4 54 30 54 47 0 8 18 25 40 39 49 31 208 179 233 217 11 15 22 28 27
28 4 0 19 18 34 40 55 83 144 164 446 408 25 20 61 54 80 75 19 21 54 58 78
82 23 24 42 49 42 56 0 6 11 20 24 30 14 11 27 28 31 38 3 10 17 23 30 29 14
6 25 18 25 25 0 7 26 35 58 63 31 27 71 63 87 79 17 17 51 45 78 63 26 18 47
39 47 47 0 19 -8 18 -41 -3z"/>
<path d="M10728 4430 c-19 -18 -24 -55 -9 -64 7 -5 35 75 28 80 -1 1 -10 -6
-19 -16z"/>
<path d="M10685 4323 c-3 -21 -8 -50 -10 -64 -2 -14 0 -55 6 -90 5 -35 14 -98
19 -139 5 -41 17 -100 26 -130 18 -58 21 -194 8 -342 -6 -73 -5 -78 20 -103
47 -47 48 -41 47 278 -1 65 -4 123 -7 129 -17 28 -62 247 -69 333 -11 160 -27
210 -40 128z"/>
<path d="M1930 5628 c-11 -12 -20 -25 -20 -30 0 -4 -20 -30 -45 -58 -46 -52
-49 -58 -40 -82 8 -20 62 -10 80 14 7 11 23 26 35 32 19 9 70 111 70 138 0 18
-60 7 -80 -14z"/>
</g>
</svg>
